advent_pro_bld.ufo
<glyph name="percent" format="1">
  <advance width="728"/>
  <unicode hex="0025"/>
  <outline>
    <contour>
      <point x="35" y="0" type="line"/>
      <point x="572" y="698" type="line"/>
      <point x="689" y="698" type="line"/>
      <point x="149" y="0" type="line"/>
    </contour>
    <contour>
      <point x="187" y="713" type="curve" smooth="yes"/>
      <point x="265.667" y="713"/>
      <point x="332" y="648.017"/>
      <point x="332" y="568" type="curve" smooth="yes"/>
      <point x="332" y="487.317"/>
      <point x="265.667" y="422"/>
      <point x="187" y="422" type="curve" smooth="yes"/>
      <point x="106.317" y="422"/>
      <point x="41" y="487.317"/>
      <point x="41" y="568" type="curve" smooth="yes"/>
      <point x="41" y="648.017"/>
      <point x="106.317" y="713"/>
    </contour>
    <contour>
      <point x="187" y="620" type="curve" smooth="yes"/>
      <point x="157.067" y="620"/>
      <point x="134" y="596.367"/>
      <point x="134" y="568" type="curve" smooth="yes"/>
      <point x="134" y="538.967"/>
      <point x="157.067" y="515"/>
      <point x="187" y="515" type="curve" smooth="yes"/>
      <point x="214.017" y="515"/>
      <point x="239" y="538.967"/>
      <point x="239" y="568" type="curve" smooth="yes"/>
      <point x="239" y="596.367"/>
      <point x="214.017" y="620"/>
    </contour>
    <contour>
      <point x="547" y="277" type="curve" smooth="yes"/>
      <point x="627.017" y="277"/>
      <point x="692" y="212.583"/>
      <point x="692" y="131" type="curve" smooth="yes"/>
      <point x="692" y="50.9833"/>
      <point x="627.017" y="-14"/>
      <point x="547" y="-14" type="curve" smooth="yes"/>
      <point x="466.317" y="-14"/>
      <point x="401" y="50.9833"/>
      <point x="401" y="131" type="curve" smooth="yes"/>
      <point x="401" y="212.583"/>
      <point x="466.317" y="277"/>
    </contour>
    <contour>
      <point x="547" y="184" type="curve" smooth="yes"/>
      <point x="518.633" y="184"/>
      <point x="495" y="158.683"/>
      <point x="495" y="131" type="curve" smooth="yes"/>
      <point x="495" y="102.633"/>
      <point x="518.633" y="79"/>
      <point x="547" y="79" type="curve" smooth="yes"/>
      <point x="574.7" y="79"/>
      <point x="598" y="102.633"/>
      <point x="598" y="131" type="curve" smooth="yes"/>
      <point x="598" y="158.683"/>
      <point x="574.7" y="184"/>
    </contour>
  </outline>
</glyph>
<glyph name="ampersand" format="1">
  <advance width="529"/>
  <unicode hex="0026"/>
  <outline>
    <contour>
      <point x="383" y="588" type="line"/>
      <point x="255.027" y="588" type="line" smooth="yes"/>
      <point x="215.873" y="588"/>
      <point x="182" y="573"/>
      <point x="182" y="534" type="curve" smooth="yes"/>
      <point x="182" y="476.082"/>
      <point x="230.168" y="436.823"/>
      <point x="277" y="403" type="curve"/>
      <point x="289" y="403" type="line"/>
      <point x="289" y="506" type="line"/>
      <point x="399" y="506" type="line"/>
      <point x="399" y="403" type="line"/>
      <point x="498" y="403" type="line"/>
      <point x="475" y="306" type="line"/>
      <point x="404" y="306" type="line"/>
      <point x="404" y="136" type="line" smooth="yes"/>
      <point x="404" y="90.6667"/>
      <point x="430.667" y="80"/>
      <point x="476" y="80" type="curve"/>
      <point x="443" y="-8" type="line"/>
      <point x="381.667" y="-6.6667"/>
      <point x="339.333" y="12"/>
      <point x="314" y="48" type="curve"/>
      <point x="280.377" y="16.3545"/>
      <point x="233.182" y="-2"/>
      <point x="192" y="-2" type="curve" smooth="yes"/>
      <point x="114.9" y="-2"/>
      <point x="31" y="33.7359"/>
      <point x="31" y="161" type="curve" smooth="yes"/>
      <point x="31" y="256" type="line" smooth="yes"/>
      <point x="31" y="358.329"/>
      <point x="81.4069" y="403"/>
      <point x="155" y="403" type="curve" smooth="yes"/>
      <point x="169" y="403" type="line"/>
      <point x="112.26" y="433.396"/>
      <point x="73" y="486.166"/>
      <point x="73" y="554" type="curve" smooth="yes"/>
      <point x="73" y="640.083"/>
      <point x="146.233" y="700"/>
      <point x="236" y="700" type="curve" smooth="yes"/>
      <point x="404" y="700" type="line"/>
    </contour>
    <contour>
      <point x="289" y="310" type="line"/>
      <point x="201" y="310" type="line" smooth="yes"/>
      <point x="168.883" y="310"/>
      <point x="140" y="296.267"/>
      <point x="140" y="258" type="curve" smooth="yes"/>
      <point x="140" y="164" type="line" smooth="yes"/>
      <point x="140" y="126.667"/>
      <point x="166.333" y="98"/>
      <point x="209" y="98" type="curve" smooth="yes"/>
      <point x="248.475" y="98"/>
      <point x="281.01" y="125.055"/>
      <point x="289" y="167" type="curve"/>
    </contour>
  </outline>
</glyph>
<glyph name="quotesingle" format="1">
  <advance width="148"/>
  <unicode hex="0027"/>
  <outline>
    <contour>
      <point x="28" y="694" type="line"/>
      <point x="28" y="751.098"/>
      <point x="118" y="751.098"/>
      <point x="118" y="694" type="curve"/>
      <point x="104" y="587" type="line"/>
      <point x="42" y="587" type="line"/>
    </contour>
  </outline>
</glyph>
<glyph name="parenleft" format="1">
  <advance width="240"/>
  <unicode hex="0028"/>
  <outline>
    <contour>
      <point x="214" y="729" type="line"/>
      <point x="214.556" y="728.34"/>
      <point x="148.444" y="701.562"/>
      <point x="149" y="606" type="curve"/>
      <point x="149" y="322.083"/>
      <point x="149" y="184.417"/>
      <point x="149" y="103" type="curve"/>
      <point x="147.889" y="-1.22222"/>
      <point x="216.111" y="-34.7778"/>
      <point x="215" y="-35" type="curve"/>
      <point x="160" y="-116" type="line"/>
      <point x="61.3092" y="-59.9863"/>
      <point x="40" y="12.9679"/>
      <point x="40" y="94" type="curve" smooth="yes"/>
      <point x="40" y="604" type="line" smooth="yes"/>
      <point x="40" y="682.584"/>
      <point x="67.8822" y="764.499"/>
      <point x="159" y="816" type="curve"/>
    </contour>
  </outline>
</glyph>
<glyph name="parenright" format="1">
  <advance width="242"/>
  <unicode hex="0029"/>
  <outline>
    <contour>
      <point x="82" y="816" type="line"/>
      <point x="174.329" y="763.814"/>
      <point x="201" y="683.132"/>
      <point x="201" y="604" type="curve" smooth="yes"/>
      <point x="201" y="94" type="line" smooth="yes"/>
      <point x="201" y="12.9679"/>
      <point x="179.691" y="-59.9863"/>
      <point x="81" y="-116" type="curve"/>
      <point x="26" y="-35" type="line"/>
      <point x="24.8889" y="-34.7778"/>
      <point x="93.1111" y="-1.22224"/>
      <point x="92" y="103" type="curve"/>
      <point x="92" y="184.417"/>
      <point x="92" y="322.083"/>
      <point x="92" y="606" type="curve"/>
      <point x="92.5556" y="701.562"/>
      <point x="26.4445" y="728.34"/>
      <point x="27" y="729" type="curve"/>
    </contour>
  </outline>
</glyph>
<glyph name="asterisk" format="1">
  <advance width="381"/>
  <unicode hex="002A"/>
  <outline>
    <contour>
      <point x="65" y="653" type="line"/>
      <point x="162" y="586" type="line"/>
      <point x="129" y="698" type="line"/>
      <point x="249" y="698" type="line"/>
      <point x="215" y="586" type="line"/>
      <point x="308" y="654" type="line"/>
      <point x="353" y="549" type="line"/>
      <point x="232" y="539" type="line"/>
      <point x="328" y="464" type="line"/>
      <point x="226" y="396" type="line"/>
      <point x="188" y="514" type="line"/>
      <point x="150" y="396" type="line"/>
      <point x="52" y="466" type="line"/>
      <point x="143" y="540" type="line"/>
      <point x="26" y="550" type="line"/>
    </contour>
  </outline>
</glyph>
<glyph name="plus" format="1">
  <advance width="381"/>
  <unicode hex="002B"/>
  <outline>
    <contour>
      <point x="244" y="529" type="line"/>
      <point x="244" y="419" type="line"/>
      <point x="349" y="419" type="line"/>
      <point x="349" y="313" type="line"/>
      <point x="244" y="313" type="line"/>
      <point x="244" y="210" type="line"/>
      <point x="133" y="210" type="line"/>
      <point x="133" y="313" type="line"/>
      <point x="29" y="313" type="line"/>
      <point x="29" y="419" type="line"/>
      <point x="133" y="419" type="line"/>
      <point x="133" y="529" type="line"/>
    </contour>
  </outline>
</glyph>
<glyph name="comma" format="1">
  <advance width="187"/>
  <unicode hex="002C"/>
  <outline>
    <contour>
      <point x="61" y="-66" type="line"/>
      <point x="71.6667" y="-47.3333"/>
      <point x="75" y="-28"/>
      <point x="79" y="-8" type="curve"/>
      <point x="52.3333" y="-1.33333"/>
      <point x="34" y="22"/>
      <point x="34" y="50" type="curve" smooth="yes"/>
      <point x="34" y="82"/>
      <point x="60.6667" y="109"/>
      <point x="94" y="109" type="curve" smooth="yes"/>
      <point x="126" y="109"/>
      <point x="152" y="82"/>
      <point x="152" y="50" type="curve"/>
      <point x="153.667" y="-40.5556"/>
      <point x="83.3334" y="-83.1111"/>
      <point x="85" y="-83" type="curve"/>
    </contour>
  </outline>
</glyph>
<glyph name="two" format="1">
  <advance width="441"/>
  <unicode hex="0032"/>
  <outline>
    <contour>
      <point x="48" y="588" type="line"/>
      <point x="76" y="662.667"/>
      <point x="145" y="708"/>
      <point x="225" y="708" type="curve" smooth="yes"/>
      <point x="314.65" y="708"/>
      <point x="402" y="650.433"/>
      <point x="402" y="538" type="curve" smooth="yes"/>
      <point x="402" y="476.667"/>
      <point x="376.333" y="428"/>
      <point x="339" y="372" type="curve" smooth="yes"/>
      <point x="293.944" y="302.368"/>
      <point x="249.766" y="237.157"/>
      <point x="159" y="100" type="curve"/>
      <point x="405" y="100" type="line"/>
      <point x="405" y="0" type="line"/>
      <point x="32" y="0" type="line"/>
      <point x="32" y="101" type="line"/>
      <point x="104" y="209"/>
      <point x="175" y="316.667"/>
      <point x="251" y="422" type="curve"/>
      <point x="287.671" y="481.081"/>
      <point x="294" y="499.952"/>
      <point x="294" y="529" type="curve" smooth="yes"/>
      <point x="294" y="576.794"/>
      <point x="259.872" y="599.007"/>
      <point x="224" y="601" type="curve"/>
      <point x="186.667" y="601"/>
      <point x="153.667" y="579.667"/>
      <point x="139" y="541" type="curve"/>
    </contour>
  </outline>
</glyph>
<glyph name="three" format="1">
  <advance width="449"/>
  <unicode hex="0033"/>
  <outline>
    <contour>
      <point x="247" y="411" type="line"/>
      <point x="292.333" y="403"/>
      <point x="332.667" y="378.333"/>
      <point x="366" y="341" type="curve" smooth="yes"/>
      <point x="401.333" y="301.667"/>
      <point x="419" y="255"/>
      <point x="419" y="201" type="curve" smooth="yes"/>
      <point x="419" y="141"/>
      <point x="397.667" y="90.6667"/>
      <point x="355" y="50" type="curve" smooth="yes"/>
      <point x="313.667" y="8.66667"/>
      <point x="263.667" y="-12"/>
      <point x="205" y="-12" type="curve" smooth="yes"/>
      <point x="134.333" y="-12"/>
      <point x="69" y="24.6667"/>
      <point x="29" y="82" type="curve"/>
      <point x="97" y="161" type="line"/>
      <point x="115.667" y="122.333"/>
      <point x="159" y="95"/>
      <point x="203" y="95" type="curve" smooth="yes"/>
      <point x="236.333" y="95"/>
      <point x="262.667" y="106.667"/>
      <point x="280" y="124" type="curve" smooth="yes"/>
      <point x="298.667" y="144"/>
      <point x="308" y="170.333"/>
      <point x="308" y="201" type="curve" smooth="yes"/>
      <point x="308" y="239.667"/>
      <point x="293" y="266.667"/>
      <point x="261" y="284" type="curve" smooth="yes"/>
      <point x="238.333" y="297.333"/>
      <point x="205.667" y="306"/>
      <point x="163" y="306" type="curve" smooth="yes"/>
      <point x="54" y="306" type="line"/>
      <point x="241" y="588" type="line"/>
      <point x="73" y="588" type="line"/>
      <point x="73" y="698" type="line"/>
      <point x="363" y="698" type="line"/>
      <point x="363" y="588" type="line"/>
      <point x="244" y="413" type="line"/>
    </contour>
  </outline>
</glyph>
<glyph name="nine" format="1">
  <advance width="484"/>
  <unicode hex="0039"/>
  <outline>
    <contour>
      <point x="238" y="708" type="curve" smooth="yes"/>
      <point x="296" y="708"/>
      <point x="346" y="687.667"/>
      <point x="388" y="647" type="curve"/>
      <point x="428.667" y="605"/>
      <point x="449" y="554.667"/>
      <point x="449" y="496" type="curve" smooth="yes"/>
      <point x="449" y="238" type="line" smooth="yes"/>
      <point x="449" y="184.667"/>
      <point x="435" y="134"/>
      <point x="399" y="82" type="curve"/>
      <point x="363" y="34"/>
      <point x="295.333" y="-1"/>
      <point x="206" y="-1" type="curve" smooth="yes"/>
      <point x="171" y="-1" type="line"/>
      <point x="171" y="100" type="line"/>
      <point x="210" y="100" type="line" smooth="yes"/>
      <point x="251.333" y="100"/>
      <point x="282.667" y="116"/>
      <point x="304" y="140" type="curve"/>
      <point x="328" y="169.333"/>
      <point x="340" y="211.333"/>
      <point x="340" y="262" type="curve" smooth="yes"/>
      <point x="340" y="315" type="line"/>
      <point x="339.75" y="316.583"/>
      <point x="305.75" y="285.167"/>
      <point x="238" y="286" type="curve"/>
      <point x="180.667" y="286"/>
      <point x="128.333" y="305"/>
      <point x="87" y="345" type="curve"/>
      <point x="46.3333" y="387.667"/>
      <point x="26" y="438"/>
      <point x="26" y="496" type="curve" smooth="yes"/>
      <point x="26" y="554.667"/>
      <point x="46.3333" y="605"/>
      <point x="87" y="647" type="curve"/>
      <point x="129.667" y="687.667"/>
      <point x="180" y="708"/>
    </contour>
    <contour>
      <point x="238" y="599" type="curve" smooth="yes"/>
      <point x="181.267" y="599"/>
      <point x="134" y="554.65"/>
      <point x="134" y="497" type="curve" smooth="yes"/>
      <point x="134" y="440.933"/>
      <point x="181.267" y="394"/>
      <point x="238" y="394" type="curve" smooth="yes"/>
      <point x="295.65" y="394"/>
      <point x="340" y="440.933"/>
      <point x="340" y="497" type="curve" smooth="yes"/>
      <point x="340" y="554.65"/>
      <point x="295.65" y="599"/>
    </contour>
  </outline>
</glyph>
<glyph name="colon" format="1">
  <advance width="196"/>
  <unicode hex="003A"/>
  <outline>
    <contour>
      <point x="157" y="143" type="curve" smooth="yes"/>
      <point x="157" y="109.667"/>
      <point x="129.333" y="84"/>
      <point x="96" y="84" type="curve" smooth="yes"/>
      <point x="62.6667" y="84"/>
      <point x="38" y="109.667"/>
      <point x="38" y="143" type="curve" smooth="yes"/>
      <point x="38" y="176.333"/>
      <point x="62.6667" y="204"/>
      <point x="96" y="204" type="curve" smooth="yes"/>
      <point x="129.333" y="204"/>
      <point x="157" y="176.333"/>
    </contour>
    <contour>
      <point x="157" y="385" type="curve" smooth="yes"/>
      <point x="157" y="351.667"/>
      <point x="129.333" y="324"/>
      <point x="96" y="324" type="curve" smooth="yes"/>
      <point x="62.6667" y="324"/>
      <point x="38" y="351.667"/>
      <point x="38" y="385" type="curve" smooth="yes"/>
      <point x="38" y="417"/>
      <point x="62.6667" y="444"/>
      <point x="96" y="444" type="curve" smooth="yes"/>
      <point x="129.333" y="444"/>
      <point x="157" y="417"/>
    </contour>
  </outline>
</glyph>
<glyph name="semicolon" format="1">
  <advance width="195"/>
  <unicode hex="003B"/>
  <outline>
    <contour>
      <point x="63" y="28" type="line"/>
      <point x="73.6667" y="45.3333"/>
      <point x="79.3333" y="66.3333"/>
      <point x="82" y="85" type="curve"/>
      <point x="55.3333" y="91.6667"/>
      <point x="37" y="116.333"/>
      <point x="37" y="143" type="curve" smooth="yes"/>
      <point x="37" y="176.333"/>
      <point x="62.6667" y="202"/>
      <point x="96" y="202" type="curve" smooth="yes"/>
      <point x="128" y="202"/>
      <point x="155" y="176.333"/>
      <point x="155" y="143" type="curve"/>
      <point x="156.667" y="51.8889"/>
      <point x="86.3334" y="11.4444"/>
      <point x="88" y="11" type="curve"/>
    </contour>
    <contour>
      <point x="157" y="385" type="curve" smooth="yes"/>
      <point x="157" y="351.667"/>
      <point x="129.333" y="324"/>
      <point x="96" y="324" type="curve" smooth="yes"/>
      <point x="62.6667" y="324"/>
      <point x="38" y="351.667"/>
      <point x="38" y="385" type="curve" smooth="yes"/>
      <point x="38" y="417"/>
      <point x="62.6667" y="444"/>
      <point x="96" y="444" type="curve" smooth="yes"/>
      <point x="129.333" y="444"/>
      <point x="157" y="417"/>
    </contour>
  </outline>
</glyph>
<glyph name="less" format="1">
  <advance width="411"/>
  <unicode hex="003C"/>
  <outline>
    <contour>
      <point x="26" y="358" type="line"/>
      <point x="304" y="636" type="line"/>
      <point x="378" y="565" type="line"/>
      <point x="166" y="358" type="line"/>
      <point x="375" y="146" type="line"/>
      <point x="304" y="80" type="line"/>
    </contour>
  </outline>
</glyph>
<glyph name="equal" format="1">
  <advance width="394"/>
  <unicode hex="003D"/>
  <outline>
    <contour>
      <point x="36" y="356" type="line"/>
      <point x="36" y="461" type="line"/>
      <point x="356" y="461" type="line"/>
      <point x="356" y="356" type="line"/>
    </contour>
    <contour>
      <point x="36" y="204" type="line"/>
      <point x="36" y="309" type="line"/>
      <point x="356" y="309" type="line"/>
      <point x="356" y="204" type="line"/>
    </contour>
  </outline>
</glyph>
<glyph name="greater" format="1">
  <advance width="414"/>
  <unicode hex="003E"/>
  <outline>
    <contour>
      <point x="32" y="565" type="line"/>
      <point x="105" y="636" type="line"/>
      <point x="384" y="358" type="line"/>
      <point x="105" y="80" type="line"/>
      <point x="34" y="146" type="line"/>
      <point x="243" y="358" type="line"/>
    </contour>
  </outline>
</glyph>
<glyph name="question" format="1">
  <advance width="426"/>
  <unicode hex="003F"/>
  <outline>
    <contour>
      <point x="26" y="531" type="line"/>
      <point x="26" y="652.6"/>
      <point x="117.95" y="708"/>
      <point x="206" y="708" type="curve" smooth="yes"/>
      <point x="309.267" y="708"/>
      <point x="396" y="634.867"/>
      <point x="396" y="521" type="curve" smooth="yes"/>
      <point x="396" y="455.667"/>
      <point x="360.667" y="413"/>
      <point x="318" y="365" type="curve" smooth="yes"/>
      <point x="265.026" y="306.729"/>
      <point x="248" y="282"/>
      <point x="248" y="210" type="curve" smooth="yes"/>
      <point x="248" y="119" type="line"/>
      <point x="139" y="119" type="line"/>
      <point x="139" y="212" type="line" smooth="yes"/>
      <point x="139" y="297.273"/>
      <point x="177.731" y="354.745"/>
      <point x="215" y="400" type="curve" smooth="yes"/>
      <point x="250.889" y="443.865"/>
      <point x="285" y="480.375"/>
      <point x="285" y="525" type="curve" smooth="yes"/>
      <point x="285" y="565.3"/>
      <point x="254.95" y="603"/>
      <point x="207" y="603" type="curve" smooth="yes"/>
      <point x="172.017" y="603"/>
      <point x="139" y="579.9"/>
      <point x="139" y="531" type="curve"/>
    </contour>
    <contour>
      <point x="194" y="103" type="curve" smooth="yes"/>
      <point x="227.333" y="103"/>
      <point x="253" y="76.3333"/>
      <point x="253" y="43" type="curve" smooth="yes"/>
      <point x="253" y="9.66667"/>
      <point x="227.333" y="-17"/>
      <point x="194" y="-17" type="curve" smooth="yes"/>
      <point x="160.667" y="-17"/>
      <point x="134" y="9.66667"/>
      <point x="134" y="43" type="curve" smooth="yes"/>
      <point x="134" y="76.3333"/>
      <point x="160.667" y="103"/>
    </contour>
  </outline>
</glyph>
<glyph name="D" format="1">
  <advance width="497"/>
  <unicode hex="0044"/>
  <outline>
    <contour>
      <point x="229" y="700" type="line" smooth="yes"/>
      <point x="371.796" y="700"/>
      <point x="461" y="617.482"/>
      <point x="461" y="473" type="curve" smooth="yes"/>
      <point x="461" y="206" type="line" smooth="yes"/>
      <point x="461" y="74"/>
      <point x="390.333" y="0"/>
      <point x="249" y="0" type="curve" smooth="yes"/>
      <point x="41" y="0" type="line"/>
      <point x="41" y="700" type="line"/>
    </contour>
    <contour>
      <point x="234" y="101" type="line" smooth="yes"/>
      <point x="346.2" y="101"/>
      <point x="351" y="156.517"/>
      <point x="351" y="196" type="curve" smooth="yes"/>
      <point x="351" y="483" type="line" smooth="yes"/>
      <point x="351" y="554.35"/>
      <point x="315.467" y="588"/>
      <point x="239" y="588" type="curve" smooth="yes"/>
      <point x="151" y="588" type="line"/>
      <point x="151" y="101" type="line"/>
    </contour>
  </outline>
</glyph>
<glyph name="J" format="1">
  <advance width="281"/>
  <unicode hex="004A"/>
  <outline>
    <contour>
      <point x="240" y="139" type="line" smooth="yes"/>
      <point x="240" y="26"/>
      <point x="172" y="-33"/>
      <point x="63" y="-37" type="curve"/>
      <point x="27" y="57" type="line"/>
      <point x="97.6667" y="57"/>
      <point x="133" y="90.6667"/>
      <point x="133" y="156" type="curve" smooth="yes"/>
      <point x="133" y="591" type="line"/>
      <point x="72" y="593" type="line"/>
      <point x="72" y="698" type="line"/>
      <point x="240" y="698" type="line"/>
    </contour>
  </outline>
</glyph>
<glyph name="L" format="1">
  <advance width="428"/>
  <unicode hex="004C"/>
  <outline>
    <contour>
      <point x="41" y="0" type="line"/>
      <point x="41" y="698" type="line"/>
      <point x="151" y="698" type="line"/>
      <point x="151" y="101" type="line"/>
      <point x="402" y="101" type="line"/>
      <point x="402" y="0" type="line"/>
    </contour>
  </outline>
</glyph>
<glyph name="O" format="1">
  <advance width="493"/>
  <unicode hex="004F"/>
  <outline>
    <contour>
      <point x="36" y="506" type="line" smooth="yes"/>
      <point x="36" y="642"/>
      <point x="116" y="715"/>
      <point x="248" y="715" type="curve" smooth="yes"/>
      <point x="380" y="715"/>
      <point x="456" y="635.667"/>
      <point x="456" y="505" type="curve" smooth="yes"/>
      <point x="456" y="185" type="line" smooth="yes"/>
      <point x="456" y="62.8833"/>
      <point x="372.833" y="-11"/>
      <point x="247" y="-11" type="curve" smooth="yes"/>
      <point x="128.833" y="-11"/>
      <point x="36" y="56.1333"/>
      <point x="36" y="185" type="curve" smooth="yes"/>
    </contour>
    <contour>
      <point x="146" y="204" type="line" smooth="yes"/>
      <point x="146" y="140.283"/>
      <point x="179.333" y="101"/>
      <point x="246" y="101" type="curve" smooth="yes"/>
      <point x="309.067" y="101"/>
      <point x="346" y="143.2"/>
      <point x="346" y="206" type="curve" smooth="yes"/>
      <point x="346" y="469" type="line" smooth="yes"/>
      <point x="346" y="554.333"/>
      <point x="323.333" y="598"/>
      <point x="246" y="598" type="curve" smooth="yes"/>
      <point x="176.667" y="598"/>
      <point x="146" y="556.667"/>
      <point x="146" y="470" type="curve" smooth="yes"/>
    </contour>
  </outline>
</glyph>
<glyph name="Q" format="1">
  <advance width="493"/>
  <unicode hex="0051"/>
  <outline>
    <component base="O"/>
    <contour>
      <point x="295" y="45" type="line" smooth="yes"/>
      <point x="295" y="0.783333"/>
      <point x="309.283" y="-22"/>
      <point x="404" y="-22" type="curve"/>
      <point x="390" y="-117" type="line"/>
      <point x="230.733" y="-117"/>
      <point x="197" y="-49.6667"/>
      <point x="197" y="31" type="curve" smooth="yes"/>
      <point x="197" y="173" type="line"/>
      <point x="295" y="173" type="line"/>
    </contour>
  </outline>
</glyph>
<glyph name="S" format="1">
  <advance width="544"/>
  <unicode hex="0053"/>
  <outline>
    <contour>
      <point x="417" y="574" type="line"/>
      <point x="377" y="593"/>
      <point x="333" y="606"/>
      <point x="288" y="606" type="curve" smooth="yes"/>
      <point x="245" y="606"/>
      <point x="175" y="590"/>
      <point x="175" y="535" type="curve" smooth="yes"/>
      <point x="175" y="423"/>
      <point x="515" y="428"/>
      <point x="515" y="198" type="curve" smooth="yes"/>
      <point x="515" y="50"/>
      <point x="397" y="-12"/>
      <point x="264" y="-12" type="curve" smooth="yes"/>
      <point x="178" y="-12"/>
      <point x="90" y="22"/>
      <point x="33" y="88" type="curve"/>
      <point x="94" y="162" type="line"/>
      <point x="138" y="116"/>
      <point x="203" y="92"/>
      <point x="266" y="92" type="curve" smooth="yes"/>
      <point x="330" y="92"/>
      <point x="396" y="125"/>
      <point x="396" y="197" type="curve" smooth="yes"/>
      <point x="396" y="341"/>
      <point x="62" y="326"/>
      <point x="62" y="534" type="curve" smooth="yes"/>
      <point x="62" y="661"/>
      <point x="180" y="708"/>
      <point x="290" y="708" type="curve" smooth="yes"/>
      <point x="345" y="708"/>
      <point x="401" y="697"/>
      <point x="450" y="671" type="curve"/>
    </contour>
  </outline>
</glyph>
<glyph name="U" format="1">
  <advance width="501"/>
  <unicode hex="0055"/>
  <outline>
    <contour>
      <point x="461" y="186" type="line" smooth="yes"/>
      <point x="461" y="57"/>
      <point x="374" y="-11"/>
      <point x="251" y="-11" type="curve" smooth="yes"/>
      <point x="127" y="-11"/>
      <point x="39" y="57"/>
      <point x="39" y="186" type="curve" smooth="yes"/>
      <point x="39" y="700" type="line"/>
      <point x="150" y="700" type="line"/>
      <point x="150" y="205" type="line" smooth="yes"/>
      <point x="150" y="139"/>
      <point x="184" y="102"/>
      <point x="250" y="102" type="curve" smooth="yes"/>
      <point x="313" y="102"/>
      <point x="350" y="145"/>
      <point x="350" y="207" type="curve" smooth="yes"/>
      <point x="350" y="700" type="line"/>
      <point x="461" y="700" type="line"/>
    </contour>
  </outline>
</glyph>
<glyph name="V" format="1">
  <advance width="514"/>
  <unicode hex="0056"/>
  <outline>
    <contour>
      <point x="17" y="698" type="line"/>
      <point x="141" y="698" type="line"/>
      <point x="256" y="216" type="line"/>
      <point x="368" y="698" type="line"/>
      <point x="495" y="698" type="line"/>
      <point x="320" y="0" type="line"/>
      <point x="192" y="0" type="line"/>
    </contour>
  </outline>
</glyph>
<glyph name="Z" format="1">
  <advance width="556"/>
  <unicode hex="005A"/>
  <outline>
    <contour>
      <point x="514" y="698" type="line"/>
      <point x="514" y="588" type="line"/>
      <point x="170" y="105" type="line"/>
      <point x="520" y="105" type="line"/>
      <point x="520" y="0" type="line"/>
      <point x="32" y="0" type="line"/>
      <point x="32" y="101" type="line"/>
      <point x="375" y="588" type="line"/>
      <point x="46" y="588" type="line"/>
      <point x="46" y="698" type="line"/>
    </contour>
  </outline>
</glyph>
<glyph name="bracketleft" format="1">
  <advance width="232"/>
  <unicode hex="005B"/>
  <outline>
    <contour>
      <point x="152" y="701" type="line"/>
      <point x="152" y="1" type="line"/>
      <point x="203" y="-9" type="line"/>
      <point x="203" y="-114" type="line"/>
      <point x="42" y="-114" type="line"/>
      <point x="42" y="816" type="line"/>
      <point x="203" y="816" type="line"/>
      <point x="203" y="711" type="line"/>
    </contour>
  </outline>
</glyph>
<glyph name="bracketright" format="1">
  <advance width="234"/>
  <unicode hex="005D"/>
  <outline>
    <contour>
      <point x="31" y="-114" type="line"/>
      <point x="31" y="-9" type="line"/>
      <point x="81" y="1" type="line"/>
      <point x="81" y="701" type="line"/>
      <point x="31" y="711" type="line"/>
      <point x="31" y="816" type="line"/>
      <point x="191" y="816" type="line"/>
      <point x="191" y="-114" type="line"/>
    </contour>
  </outline>
</glyph>
<glyph name="a" format="1">
  <advance width="452"/>
  <unicode hex="0061"/>
  <outline>
    <contour>
      <point x="305" y="335" type="curve"/>
      <point x="305" y="411"/>
      <point x="274" y="434"/>
      <point x="198" y="434" type="curve"/>
      <point x="207" y="510" type="line"/>
      <point x="358" y="510"/>
      <point x="415" y="461"/>
      <point x="415" y="307" type="curve" smooth="yes"/>
      <point x="415" y="0" type="line"/>
      <point x="360" y="-8"/>
      <point x="302" y="-11"/>
      <point x="235" y="-11" type="curve" smooth="yes"/>
      <point x="121" y="-11"/>
      <point x="29" y="28"/>
      <point x="29" y="156" type="curve" smooth="yes"/>
      <point x="29" y="253" type="line" smooth="yes"/>
      <point x="29" y="355"/>
      <point x="92" y="401"/>
      <point x="165" y="401" type="curve" smooth="yes"/>
      <point x="215" y="401"/>
      <point x="276" y="378"/>
    </contour>
    <contour>
      <point x="305" y="253" type="line"/>
      <point x="294" y="260"/>
      <point x="242" y="288"/>
      <point x="196" y="288" type="curve" smooth="yes"/>
      <point x="166" y="288"/>
      <point x="141" y="277"/>
      <point x="141" y="239" type="curve" smooth="yes"/>
      <point x="141" y="174" type="line" smooth="yes"/>
      <point x="141" y="124"/>
      <point x="153" y="91"/>
      <point x="244" y="91" type="curve" smooth="yes"/>
      <point x="260" y="91"/>
      <point x="306" y="95"/>
      <point x="305" y="95" type="curve"/>
    </contour>
  </outline>
</glyph>
<glyph name="d" format="1">
  <advance width="459"/>
  <unicode hex="0064"/>
  <outline>
    <contour>
      <point x="416" y="0" type="line"/>
      <point x="362.898" y="-7.96529"/>
      <point x="303.87" y="-11"/>
      <point x="239" y="-11" type="curve" smooth="yes"/>
      <point x="125.938" y="-11"/>
      <point x="34.9946" y="37.1597"/>
      <point x="31" y="155" type="curve"/>
      <point x="31" y="359" type="line" smooth="yes"/>
      <point x="31" y="461.033"/>
      <point x="106.767" y="508"/>
      <point x="180" y="508" type="curve" smooth="yes"/>
      <point x="226.667" y="508"/>
      <point x="263.333" y="500.667"/>
      <point x="306" y="482" type="curve"/>
      <point x="306" y="698" type="line"/>
      <point x="416" y="698" type="line"/>
    </contour>
    <contour>
      <point x="306" y="370" type="line"/>
      <point x="294" y="376.667"/>
      <point x="258.667" y="394"/>
      <point x="212" y="394" type="curve" smooth="yes"/>
      <point x="181.533" y="394"/>
      <point x="142" y="382.617"/>
      <point x="142" y="345" type="curve" smooth="yes"/>
      <point x="142" y="174" type="line" smooth="yes"/>
      <point x="142" y="123.203"/>
      <point x="156" y="91"/>
      <point x="246" y="91" type="curve" smooth="yes"/>
      <point x="262" y="91"/>
      <point x="306.444" y="93.8889"/>
      <point x="306" y="94" type="curve"/>
    </contour>
  </outline>
</glyph>
<glyph name="e" format="1">
  <advance width="425"/>
  <unicode hex="0065"/>
  <outline>
    <contour>
      <point x="144" y="148" type="line" smooth="yes"/>
      <point x="144" y="113"/>
      <point x="165" y="90"/>
      <point x="201" y="90" type="curve" smooth="yes"/>
      <point x="237" y="90"/>
      <point x="285.333" y="108.667"/>
      <point x="328" y="130" type="curve"/>
      <point x="368" y="35" type="line"/>
      <point x="321.333" y="5.66667"/>
      <point x="258" y="-13"/>
      <point x="198" y="-13" type="curve" smooth="yes"/>
      <point x="104" y="-13"/>
      <point x="33" y="33"/>
      <point x="33" y="134" type="curve" smooth="yes"/>
      <point x="33" y="339" type="line" smooth="yes"/>
      <point x="33" y="451"/>
      <point x="112" y="509"/>
      <point x="217" y="509" type="curve" smooth="yes"/>
      <point x="322" y="509"/>
      <point x="393" y="453"/>
      <point x="393" y="342" type="curve" smooth="yes"/>
      <point x="393" y="186" type="line"/>
      <point x="144" y="173" type="line"/>
    </contour>
    <contour>
      <point x="282" y="312" type="line" smooth="yes"/>
      <point x="282" y="357"/>
      <point x="272" y="407"/>
      <point x="216" y="404" type="curve" smooth="yes"/>
      <point x="155" y="401"/>
      <point x="144" y="368"/>
      <point x="144" y="313" type="curve" smooth="yes"/>
      <point x="144" y="274" type="line"/>
      <point x="282" y="283" type="line"/>
    </contour>
  </outline>
</glyph>
<glyph name="g" format="1">
  <advance width="443"/>
  <unicode hex="0067"/>
  <outline>
    <contour>
      <point x="403" y="-64" type="line" smooth="yes"/>
      <point x="403" y="-170"/>
      <point x="342" y="-211"/>
      <point x="247" y="-211" type="curve"/>
      <point x="220" y="-125" type="line"/>
      <point x="253" y="-125"/>
      <point x="293" y="-107"/>
      <point x="293" y="-53" type="curve" smooth="yes"/>
      <point x="293" y="12" type="line"/>
      <point x="271" y="-3"/>
      <point x="236" y="-12"/>
      <point x="203" y="-12" type="curve" smooth="yes"/>
      <point x="92" y="-12"/>
      <point x="32" y="54"/>
      <point x="32" y="177" type="curve" smooth="yes"/>
      <point x="32" y="346" type="line" smooth="yes"/>
      <point x="32" y="448"/>
      <point x="88" y="511"/>
      <point x="191" y="511" type="curve" smooth="yes"/>
      <point x="228" y="511"/>
      <point x="263" y="501"/>
      <point x="293" y="479" type="curve"/>
      <point x="293" y="501" type="line"/>
      <point x="403" y="501" type="line"/>
    </contour>
    <contour>
      <point x="293" y="387" type="line"/>
      <point x="294" y="386"/>
      <point x="250" y="411"/>
      <point x="217" y="411" type="curve" smooth="yes"/>
      <point x="179" y="411"/>
      <point x="143" y="395"/>
      <point x="143" y="338" type="curve" smooth="yes"/>
      <point x="143" y="160" type="line" smooth="yes"/>
      <point x="143" y="121"/>
      <point x="165" y="86"/>
      <point x="212" y="88" type="curve" smooth="yes"/>
      <point x="267" y="91"/>
      <point x="293" y="118"/>
      <point x="293" y="140" type="curve" smooth="yes"/>
    </contour>
  </outline>
</glyph>
<glyph name="h" format="1">
  <advance width="445"/>
  <unicode hex="0068"/>
  <outline>
    <contour>
      <point x="150" y="476" type="line"/>
      <point x="167.333" y="488"/>
      <point x="208.667" y="509"/>
      <point x="250" y="509" type="curve" smooth="yes"/>
      <point x="328.9" y="509"/>
      <point x="411" y="473.312"/>
      <point x="411" y="345" type="curve" smooth="yes"/>
      <point x="411" y="0" type="line"/>
      <point x="302" y="0" type="line"/>
      <point x="302" y="343" type="line" smooth="yes"/>
      <point x="302" y="381.15"/>
      <point x="272.6" y="409"/>
      <point x="230" y="409" type="curve" smooth="yes"/>
      <point x="207.333" y="409"/>
      <point x="182" y="402"/>
      <point x="150" y="386" type="curve"/>
      <point x="150" y="0" type="line"/>
      <point x="41" y="0" type="line"/>
      <point x="41" y="698" type="line"/>
      <point x="150" y="698" type="line"/>
    </contour>
  </outline>
</glyph>
<glyph name="i" format="1">
  <advance width="200"/>
  <unicode hex="0069"/>
  <outline>
    <contour>
      <point x="44" y="0" type="line"/>
      <point x="44" y="499" type="line"/>
      <point x="154" y="499" type="line"/>
      <point x="154" y="0" type="line"/>
    </contour>
    <contour>
      <point x="99" y="708" type="curve" smooth="yes"/>
      <point x="132.333" y="708"/>
      <point x="159" y="683.333"/>
      <point x="159" y="650" type="curve" smooth="yes"/>
      <point x="159" y="616.667"/>
      <point x="132.333" y="590"/>
      <point x="99" y="590" type="curve" smooth="yes"/>
      <point x="65.6667" y="590"/>
      <point x="40" y="616.667"/>
      <point x="40" y="650" type="curve" smooth="yes"/>
      <point x="40" y="683.333"/>
      <point x="65.6667" y="708"/>
    </contour>
  </outline>
</glyph>
<glyph name="n" format="1">
  <advance width="445"/>
  <unicode hex="006E"/>
  <outline>
    <contour>
      <point x="299" y="342" type="line" smooth="yes"/>
      <point x="299" y="379.467"/>
      <point x="269.933" y="409"/>
      <point x="228" y="409" type="curve" smooth="yes"/>
      <point x="205.333" y="409"/>
      <point x="180" y="402.333"/>
      <point x="148" y="385" type="curve"/>
      <point x="148" y="-1" type="line"/>
      <point x="39" y="-1" type="line"/>
      <point x="39" y="499" type="line"/>
      <point x="148" y="499" type="line"/>
      <point x="148" y="476" type="line"/>
      <point x="165.333" y="486.667"/>
      <point x="206.667" y="508"/>
      <point x="248" y="508" type="curve" smooth="yes"/>
      <point x="327.792" y="508"/>
      <point x="408" y="473.026"/>
      <point x="408" y="345" type="curve" smooth="yes"/>
      <point x="408" y="-1" type="line"/>
      <point x="299" y="-1" type="line"/>
    </contour>
  </outline>
</glyph>
<glyph name="o" format="1">
  <advance width="432"/>
  <unicode hex="006F"/>
  <outline>
    <contour>
      <point x="400" y="184" type="line" smooth="yes"/>
      <point x="400" y="67.0611"/>
      <point x="339.258" y="-10"/>
      <point x="218" y="-10" type="curve" smooth="yes"/>
      <point x="86.5833" y="-10"/>
      <point x="31" y="83.0167"/>
      <point x="31" y="184" type="curve" smooth="yes"/>
      <point x="31" y="316" type="line" smooth="yes"/>
      <point x="31" y="442.667"/>
      <point x="96.6667" y="510"/>
      <point x="218" y="510" type="curve" smooth="yes"/>
      <point x="334" y="510"/>
      <point x="400" y="437.333"/>
      <point x="400" y="316" type="curve" smooth="yes"/>
    </contour>
    <contour>
      <point x="287" y="322" type="line" smooth="yes"/>
      <point x="287" y="370"/>
      <point x="263.667" y="400"/>
      <point x="217" y="400" type="curve" smooth="yes"/>
      <point x="169" y="400"/>
      <point x="142" y="372.667"/>
      <point x="142" y="322" type="curve" smooth="yes"/>
      <point x="142" y="176" type="line" smooth="yes"/>
      <point x="142" y="135.7"/>
      <point x="163.85" y="98"/>
      <point x="217" y="98" type="curve" smooth="yes"/>
      <point x="267.267" y="98"/>
      <point x="287" y="131.2"/>
      <point x="287" y="176" type="curve" smooth="yes"/>
    </contour>
  </outline>
</glyph>
<glyph name="q" format="1">
  <advance width="443"/>
  <unicode hex="0071"/>
  <outline>
    <contour>
      <point x="293" y="13" type="line"/>
      <point x="269" y="-1"/>
      <point x="234" y="-11"/>
      <point x="203" y="-11" type="curve" smooth="yes"/>
      <point x="92" y="-11"/>
      <point x="32" y="55"/>
      <point x="32" y="177" type="curve" smooth="yes"/>
      <point x="32" y="346" type="line" smooth="yes"/>
      <point x="32" y="449"/>
      <point x="88" y="512"/>
      <point x="193" y="512" type="curve" smooth="yes"/>
      <point x="228" y="512"/>
      <point x="263" y="500"/>
      <point x="293" y="479" type="curve"/>
      <point x="293" y="501" type="line"/>
      <point x="403" y="501" type="line"/>
      <point x="403" y="-213" type="line"/>
      <point x="293" y="-192" type="line"/>
    </contour>
    <contour>
      <point x="293" y="388" type="line"/>
      <point x="294" y="387"/>
      <point x="250" y="412"/>
      <point x="216" y="412" type="curve" smooth="yes"/>
      <point x="181" y="412"/>
      <point x="143" y="396"/>
      <point x="143" y="339" type="curve" smooth="yes"/>
      <point x="143" y="162" type="line" smooth="yes"/>
      <point x="143" y="123"/>
      <point x="162" y="88"/>
      <point x="212" y="89" type="curve" smooth="yes"/>
      <point x="267" y="91"/>
      <point x="293" y="118"/>
      <point x="293" y="141" type="curve" smooth="yes"/>
    </contour>
  </outline>
</glyph>
<glyph name="r" format="1">
  <advance width="374"/>
  <unicode hex="0072"/>
  <outline>
    <contour>
      <point x="332" y="410" type="line"/>
      <point x="332" y="410"/>
      <point x="316" y="417"/>
      <point x="280" y="417" type="curve" smooth="yes"/>
      <point x="236" y="417"/>
      <point x="191" y="409"/>
      <point x="150" y="389" type="curve"/>
      <point x="150" y="0" type="line"/>
      <point x="39" y="0" type="line"/>
      <point x="39" y="501" type="line"/>
      <point x="150" y="501" type="line"/>
      <point x="150" y="481" type="line"/>
      <point x="183" y="503"/>
      <point x="226" y="516"/>
      <point x="269" y="516" type="curve" smooth="yes"/>
      <point x="300" y="516"/>
      <point x="327" y="509"/>
      <point x="348" y="501" type="curve"/>
    </contour>
  </outline>
</glyph>
<glyph name="u" format="1">
  <advance width="446"/>
  <unicode hex="0075"/>
  <outline>
    <contour>
      <point x="296" y="26" type="line"/>
      <point x="282.667" y="12.6667"/>
      <point x="239.667" y="-7"/>
      <point x="197" y="-7" type="curve" smooth="yes"/>
      <point x="119.771" y="-7"/>
      <point x="37" y="28.6883"/>
      <point x="37" y="157" type="curve" smooth="yes"/>
      <point x="37" y="501" type="line"/>
      <point x="148" y="501" type="line"/>
      <point x="148" y="159" type="line" smooth="yes"/>
      <point x="148" y="112.014"/>
      <point x="168.818" y="94"/>
      <point x="209.201" y="94" type="curve" smooth="yes"/>
      <point x="254.885" y="94"/>
      <point x="296" y="128.65"/>
      <point x="296" y="175" type="curve" smooth="yes"/>
      <point x="296" y="501" type="line"/>
      <point x="406" y="501" type="line"/>
      <point x="406" y="0" type="line"/>
      <point x="296" y="0" type="line"/>
    </contour>
  </outline>
</glyph>
<glyph name="x" format="1">
  <advance width="511"/>
  <unicode hex="0078"/>
  <outline>
    <contour>
      <point x="257" y="356" type="line"/>
      <point x="346" y="499" type="line"/>
      <point x="482" y="499" type="line"/>
      <point x="324" y="249" type="line"/>
      <point x="475" y="0" type="line"/>
      <point x="344" y="0" type="line"/>
      <point x="256" y="140" type="line"/>
      <point x="169" y="0" type="line"/>
      <point x="31" y="0" type="line"/>
      <point x="187" y="248" type="line"/>
      <point x="31" y="499" type="line"/>
      <point x="171" y="499" type="line"/>
    </contour>
  </outline>
</glyph>
<glyph name="exclamdown" format="1">
  <advance width="194"/>
  <unicode hex="00A1"/>
  <outline>
    <contour>
      <point x="155" y="68" type="line"/>
      <point x="155" y="22.6667"/>
      <point x="135" y="0"/>
      <point x="95" y="0" type="curve" smooth="yes"/>
      <point x="57.6667" y="0"/>
      <point x="39" y="23.6667"/>
      <point x="39" y="69" type="curve"/>
      <point x="57" y="588" type="line"/>
      <point x="133" y="588" type="line"/>
    </contour>
    <contour>
      <point x="156" y="664" type="curve" smooth="yes"/>
      <point x="156" y="630.667"/>
      <point x="130.333" y="605"/>
      <point x="97" y="605" type="curve" smooth="yes"/>
      <point x="65" y="605"/>
      <point x="38" y="630.667"/>
      <point x="38" y="664" type="curve" smooth="yes"/>
      <point x="38" y="697.333"/>
      <point x="65" y="724"/>
      <point x="97" y="724" type="curve" smooth="yes"/>
      <point x="130.333" y="724"/>
      <point x="156" y="697.333"/>
    </contour>
  </outline>
</glyph>
<glyph name="dieresis" format="1">
  <advance width="266"/>
  <unicode hex="00A8"/>
  <outline>
    <contour>
      <point x="54" y="767" type="curve" smooth="yes"/>
      <point x="87.3333" y="767"/>
      <point x="113" y="740"/>
      <point x="113" y="708" type="curve" smooth="yes"/>
      <point x="113" y="674.667"/>
      <point x="87.3333" y="648"/>
      <point x="54" y="648" type="curve" smooth="yes"/>
      <point x="20.6667" y="648"/>
      <point x="-6" y="674.667"/>
      <point x="-6" y="708" type="curve" smooth="yes"/>
      <point x="-6" y="740"/>
      <point x="20.6667" y="767"/>
    </contour>
    <contour>
      <point x="212" y="767" type="curve" smooth="yes"/>
      <point x="245.333" y="767"/>
      <point x="272" y="740"/>
      <point x="272" y="708" type="curve" smooth="yes"/>
      <point x="272" y="674.667"/>
      <point x="245.333" y="648"/>
      <point x="212" y="648" type="curve" smooth="yes"/>
      <point x="178.667" y="648"/>
      <point x="152" y="674.667"/>
      <point x="152" y="708" type="curve" smooth="yes"/>
      <point x="152" y="740"/>
      <point x="178.667" y="767"/>
    </contour>
  </outline>
</glyph>
<glyph name="registered" format="1">
  <advance width="783"/>
  <unicode hex="00AE"/>
  <outline>
    <contour>
      <point x="750" y="185" type="line" smooth="yes"/>
      <point x="750" y="0.295456"/>
      <point x="600.298" y="-89.9943"/>
      <point x="390" y="-94" type="curve"/>
      <point x="181.035" y="-90.0197"/>
      <point x="32" y="0.315767"/>
      <point x="32" y="185" type="curve" smooth="yes"/>
      <point x="32" y="326" type="line" smooth="yes"/>
      <point x="32" y="509.767"/>
      <point x="181.033" y="603"/>
      <point x="390" y="603" type="curve" smooth="yes"/>
      <point x="600.3" y="603"/>
      <point x="750" y="509.767"/>
      <point x="750" y="326" type="curve" smooth="yes"/>
    </contour>
    <contour>
      <point x="648" y="288" type="line"/>
      <point x="646.75" y="468.417"/>
      <point x="574.25" y="498.833"/>
      <point x="390" y="503" type="curve"/>
      <point x="207.625" y="500.996"/>
      <point x="134" y="466.687"/>
      <point x="134" y="288" type="curve" smooth="yes"/>
      <point x="134" y="222" type="line" smooth="yes"/>
      <point x="134" y="43.3134"/>
      <point x="207.625" y="9.00412"/>
      <point x="390" y="7" type="curve"/>
      <point x="574.25" y="11.1667"/>
      <point x="646.75" y="41.5833"/>
      <point x="648" y="222" type="curve"/>
    </contour>
    <contour>
      <point x="427" y="443" type="line" smooth="yes"/>
      <point x="531.996" y="443"/>
      <point x="570" y="397.771"/>
      <point x="570" y="283" type="curve" smooth="yes"/>
      <point x="570" y="216.333"/>
      <point x="553.667" y="172.667"/>
      <point x="519" y="150" type="curve"/>
      <point x="572" y="61" type="line"/>
      <point x="446" y="61" type="line"/>
      <point x="415" y="128" type="line"/>
      <point x="341" y="128" type="line"/>
      <point x="341" y="61" type="line"/>
      <point x="231" y="61" type="line"/>
      <point x="231" y="443" type="line"/>
    </contour>
    <contour>
      <point x="419" y="233" type="line" smooth="yes"/>
      <point x="441.667" y="233"/>
      <point x="461" y="237.667"/>
      <point x="461" y="283" type="curve" smooth="yes"/>
      <point x="461" y="329.667"/>
      <point x="440.667" y="333"/>
      <point x="418" y="333" type="curve" smooth="yes"/>
      <point x="341" y="333" type="line"/>
      <point x="341" y="233" type="line"/>
    </contour>
  </outline>
</glyph>
<glyph name="degree" format="1">
  <advance width="350"/>
  <unicode hex="00B0"/>
  <outline>
    <contour>
      <point x="320" y="564" type="curve" smooth="yes"/>
      <point x="320" y="483.983"/>
      <point x="255.583" y="419"/>
      <point x="174" y="419" type="curve" smooth="yes"/>
      <point x="93.3167" y="419"/>
      <point x="28" y="483.983"/>
      <point x="28" y="564" type="curve" smooth="yes"/>
      <point x="28" y="645.583"/>
      <point x="93.3167" y="710"/>
      <point x="174" y="710" type="curve" smooth="yes"/>
      <point x="255.583" y="710"/>
      <point x="320" y="645.583"/>
    </contour>
    <contour>
      <point x="174" y="617" type="curve" smooth="yes"/>
      <point x="145.633" y="617"/>
      <point x="122" y="593.933"/>
      <point x="122" y="564" type="curve" smooth="yes"/>
      <point x="122" y="535.633"/>
      <point x="145.633" y="512"/>
      <point x="174" y="512" type="curve" smooth="yes"/>
      <point x="201.683" y="512"/>
      <point x="227" y="535.633"/>
      <point x="227" y="564" type="curve" smooth="yes"/>
      <point x="227" y="593.933"/>
      <point x="201.683" y="617"/>
    </contour>
  </outline>
</glyph>
<glyph name="acute" format="1">
  <advance width="266"/>
  <unicode hex="00B4"/>
  <outline>
    <contour>
      <point x="207" y="671" type="curve" smooth="yes"/>
      <point x="149" y="596" type="line"/>
      <point x="105" y="596" type="line"/>
      <point x="135" y="712" type="line" smooth="yes"/>
      <point x="141.667" y="738.667"/>
      <point x="174.069" y="756.013"/>
      <point x="200" y="741" type="curve" smooth="yes"/>
      <point x="224.775" y="726.656"/>
      <point x="225.25" y="694.599"/>
    </contour>
  </outline>
</glyph>
<glyph name="paragraph" format="1">
  <advance width="676"/>
  <unicode hex="00B6"/>
  <outline>
    <contour>
      <point x="247" y="195" type="line" smooth="yes"/>
      <point x="140.541" y="195"/>
      <point x="31" y="236.58"/>
      <point x="31" y="452" type="curve" smooth="yes"/>
      <point x="31" y="648.571"/>
      <point x="143.104" y="700"/>
      <point x="247" y="700" type="curve" smooth="yes"/>
      <point x="633" y="700" type="line"/>
      <point x="633" y="1" type="line"/>
      <point x="523" y="1" type="line"/>
      <point x="523" y="590" type="line"/>
      <point x="464" y="590" type="line"/>
      <point x="464" y="1" type="line"/>
      <point x="354" y="1" type="line"/>
      <point x="354" y="195" type="line"/>
    </contour>
    <contour>
      <point x="288" y="590" type="line" smooth="yes"/>
      <point x="186.85" y="590"/>
      <point x="141" y="577.75"/>
      <point x="141" y="452" type="curve" smooth="yes"/>
      <point x="141" y="317.367"/>
      <point x="185.95" y="300"/>
      <point x="288" y="300" type="curve" smooth="yes"/>
      <point x="354" y="300" type="line"/>
      <point x="354" y="590" type="line"/>
    </contour>
  </outline>
</glyph>
<glyph name="multiply" format="1">
  <advance width="376"/>
  <unicode hex="00D7"/>
  <outline>
    <contour>
      <point x="187" y="404" type="line"/>
      <point x="273" y="508" type="line"/>
      <point x="345" y="450" type="line"/>
      <point x="247" y="332" type="line"/>
      <point x="344" y="218" type="line"/>
      <point x="274" y="157" type="line"/>
      <point x="187" y="260" type="line"/>
      <point x="101" y="156" type="line"/>
      <point x="33" y="218" type="line"/>
      <point x="128" y="332" type="line"/>
      <point x="30" y="447" type="line"/>
      <point x="101" y="507" type="line"/>
    </contour>
  </outline>
</glyph>
<glyph name="Oslash" format="1">
  <advance width="493"/>
  <unicode hex="00D8"/>
  <outline>
    <component base="O"/>
    <contour>
      <point x="66" y="-18" type="line"/>
      <point x="324" y="720" type="line"/>
      <point x="424" y="720" type="line"/>
      <point x="162" y="-18" type="line"/>
    </contour>
  </outline>
</glyph>
<glyph name="eth" format="1">
  <advance width="423"/>
  <unicode hex="00F0"/>
  <outline>
    <contour>
      <point x="160" y="630" type="curve"/>
      <point x="187" y="699" type="line"/>
      <point x="248.333" y="684.333"/>
      <point x="298.333" y="659"/>
      <point x="337" y="623" type="curve" smooth="yes"/>
      <point x="375.667" y="587"/>
      <point x="395" y="539"/>
      <point x="395" y="479" type="curve" smooth="yes"/>
      <point x="395" y="186" type="line" smooth="yes"/>
      <point x="395" y="59.3333"/>
      <point x="328.333" y="-9"/>
      <point x="207" y="-9" type="curve" smooth="yes"/>
      <point x="92.3333" y="-9"/>
      <point x="26" y="64.6667"/>
      <point x="26" y="186" type="curve" smooth="yes"/>
      <point x="26" y="245" type="line" smooth="yes"/>
      <point x="26" y="367.667"/>
      <point x="84.3333" y="432"/>
      <point x="195" y="432" type="curve" smooth="yes"/>
      <point x="227.173" y="432"/>
      <point x="263.534" y="423.612"/>
      <point x="285" y="408" type="curve"/>
      <point x="285" y="479" type="line"/>
      <point x="286.889" y="593.778"/>
      <point x="158.111" y="629.889"/>
    </contour>
    <contour>
      <point x="136" y="260" type="curve" smooth="yes"/>
      <point x="136" y="180" type="line" smooth="yes"/>
      <point x="136" y="132"/>
      <point x="163" y="101"/>
      <point x="211" y="101" type="curve" smooth="yes"/>
      <point x="257.667" y="101"/>
      <point x="285" y="130.667"/>
      <point x="285" y="180" type="curve" smooth="yes"/>
      <point x="285" y="281" type="line" smooth="yes"/>
      <point x="285" y="317.917"/>
      <point x="234.5" y="333"/>
      <point x="201" y="333" type="curve" smooth="yes"/>
      <point x="158.333" y="333"/>
      <point x="136" y="305.333"/>
    </contour>
    <contour>
      <point x="384" y="658" type="line"/>
      <point x="206" y="479" type="line"/>
      <point x="155" y="530" type="line"/>
      <point x="334" y="709" type="line"/>
    </contour>
  </outline>
</glyph>
<glyph name="divide" format="1">
  <advance width="380"/>
  <unicode hex="00F7"/>
  <outline>
    <contour>
      <point x="29" y="340" type="line"/>
      <point x="29" y="426" type="line"/>
      <point x="349" y="426" type="line"/>
      <point x="349" y="340" type="line"/>
    </contour>
    <contour>
      <point x="190" y="571" type="curve" smooth="yes"/>
      <point x="222" y="571"/>
      <point x="250" y="542.667"/>
      <point x="250" y="512" type="curve" smooth="yes"/>
      <point x="250" y="478.667"/>
      <point x="222" y="452"/>
      <point x="190" y="452" type="curve" smooth="yes"/>
      <point x="156.667" y="452"/>
      <point x="130" y="478.667"/>
      <point x="130" y="512" type="curve" smooth="yes"/>
      <point x="130" y="542.667"/>
      <point x="156.667" y="571"/>
    </contour>
    <contour>
      <point x="190" y="313" type="curve" smooth="yes"/>
      <point x="222" y="313"/>
      <point x="250" y="288.333"/>
      <point x="250" y="255" type="curve" smooth="yes"/>
      <point x="250" y="221.667"/>
      <point x="222" y="195"/>
      <point x="190" y="195" type="curve" smooth="yes"/>
      <point x="156.667" y="195"/>
      <point x="130" y="221.667"/>
      <point x="130" y="255" type="curve" smooth="yes"/>
      <point x="130" y="288.333"/>
      <point x="156.667" y="313"/>
    </contour>
  </outline>
</glyph>
<glyph name="oslash" format="1">
  <advance width="432"/>
  <unicode hex="00F8"/>
  <outline>
    <component base="o"/>
    <contour>
      <point x="378" y="512" type="line"/>
      <point x="143" y="-20" type="line"/>
      <point x="58" y="-20" type="line"/>
      <point x="290" y="512" type="line"/>
    </contour>
  </outline>
</glyph>
<glyph name="Lslash" format="1">
  <advance width="518"/>
  <unicode hex="0141"/>
  <outline>
    <component base="L" xOffset="88.5"/>
    <contour>
      <point x="57" y="278" type="line"/>
      <point x="21" y="360" type="line"/>
      <point x="312" y="490" type="line"/>
      <point x="349" y="410" type="line"/>
    </contour>
  </outline>
</glyph>
<glyph name="lslash" format="1">
  <advance width="377"/>
  <unicode hex="0142"/>
  <outline>
    <component base="l" xOffset="83"/>
    <contour>
      <point x="315" y="490" type="line"/>
      <point x="351" y="410" type="line"/>
      <point x="59" y="278" type="line"/>
      <point x="22" y="359" type="line"/>
    </contour>
  </outline>
</glyph>
<glyph name="dotlessj" format="1">
  <advance width="250"/>
  <unicode hex="0237"/>
  <outline>
    <contour>
      <point x="209" y="-61" type="line" smooth="yes"/>
      <point x="209" y="-150"/>
      <point x="150" y="-215"/>
      <point x="59" y="-215" type="curve"/>
      <point x="29" y="-125" type="line"/>
      <point x="72" y="-115"/>
      <point x="99" y="-99"/>
      <point x="99" y="-50" type="curve" smooth="yes"/>
      <point x="99" y="400" type="line"/>
      <point x="28" y="410" type="line"/>
      <point x="28" y="499" type="line"/>
      <point x="209" y="499" type="line"/>
    </contour>
  </outline>
</glyph>
<glyph name="ring" format="1">
  <advance width="266"/>
  <unicode hex="02DA"/>
  <outline>
    <contour>
      <point x="133" y="774" type="curve" smooth="yes"/>
      <point x="195.95" y="774"/>
      <point x="247" y="724.633"/>
      <point x="247" y="661" type="curve" smooth="yes"/>
      <point x="247" y="598.95"/>
      <point x="195.95" y="547"/>
      <point x="133" y="547" type="curve" smooth="yes"/>
      <point x="70.95" y="547"/>
      <point x="19" y="598.95"/>
      <point x="19" y="661" type="curve" smooth="yes"/>
      <point x="19" y="724.633"/>
      <point x="70.95" y="774"/>
    </contour>
    <contour>
      <point x="133" y="692" type="curve" smooth="yes"/>
      <point x="125.427" y="692"/>
      <point x="118.078" y="688.938"/>
      <point x="112.438" y="683.875" type="curve" smooth="yes"/>
      <point x="106.161" y="678.241"/>
      <point x="102" y="670.129"/>
      <point x="102" y="661" type="curve" smooth="yes"/>
      <point x="102" y="651.538"/>
      <point x="105.854" y="643.446"/>
      <point x="111.74" y="637.766" type="curve" smooth="yes"/>
      <point x="117.464" y="632.242"/>
      <point x="125.111" y="629"/>
      <point x="133" y="629" type="curve" smooth="yes"/>
      <point x="140.842" y="629"/>
      <point x="147.933" y="631.729"/>
      <point x="153.348" y="636.446" type="curve" smooth="yes"/>
      <point x="159.902" y="642.156"/>
      <point x="164" y="650.778"/>
      <point x="164" y="661" type="curve" smooth="yes"/>
      <point x="164" y="669.112"/>
      <point x="161.007" y="676.421"/>
      <point x="156.045" y="681.902" type="curve" smooth="yes"/>
      <point x="150.404" y="688.132"/>
      <point x="142.221" y="692"/>
    </contour>
  </outline>
</glyph>
<glyph name="tilde" format="1">
  <advance width="266"/>
  <unicode hex="02DC"/>
  <outline>
    <contour>
      <point x="196" y="708" type="line"/>
      <point x="263" y="708" type="line"/>
      <point x="263" y="700" type="line" smooth="yes"/>
      <point x="263" y="649.333"/>
      <point x="235.667" y="605"/>
      <point x="181" y="605" type="curve" smooth="yes"/>
      <point x="167.667" y="605"/>
      <point x="155" y="609.667"/>
      <point x="143" y="615" type="curve" smooth="yes"/>
      <point x="137.667" y="617.667"/>
      <point x="116.667" y="631"/>
      <point x="110" y="635" type="curve" smooth="yes"/>
      <point x="100.667" y="641.667"/>
      <point x="90.6667" y="645"/>
      <point x="84" y="645" type="curve" smooth="yes"/>
      <point x="68" y="645"/>
      <point x="69" y="632.333"/>
      <point x="69" y="619" type="curve" smooth="yes"/>
      <point x="69" y="611" type="line"/>
      <point x="2" y="611" type="line"/>
      <point x="2" y="619" type="line" smooth="yes"/>
      <point x="2" y="657.667"/>
      <point x="16" y="696"/>
      <point x="56" y="708" type="curve" smooth="yes"/>
      <point x="78.6667" y="714.667"/>
      <point x="101.667" y="712.667"/>
      <point x="123" y="702" type="curve" smooth="yes"/>
      <point x="135" y="696.667"/>
      <point x="140.667" y="692"/>
      <point x="154" y="684" type="curve" smooth="yes"/>
      <point x="160.667" y="680"/>
      <point x="174" y="672"/>
      <point x="182" y="672" type="curve" smooth="yes"/>
      <point x="196.667" y="672"/>
      <point x="196" y="688"/>
      <point x="196" y="700" type="curve" smooth="yes"/>
    </contour>
  </outline>
</glyph>
<glyph name="uni0308" format="1">
  <advance width="266"/>
  <unicode hex="0308"/>
  <outline>
    <contour>
      <point x="87" y="767"/>
      <point x="113" y="740"/>
      <point x="113" y="708" type="curve" smooth="yes"/>
      <point x="113" y="675"/>
      <point x="87" y="648"/>
      <point x="54" y="648" type="curve" smooth="yes"/>
      <point x="21" y="648"/>
      <point x="-6" y="675"/>
      <point x="-6" y="708" type="curve" smooth="yes"/>
      <point x="-6" y="740"/>
      <point x="21" y="767"/>
      <point x="54" y="767" type="curve" smooth="yes"/>
    </contour>
    <contour>
      <point x="245" y="767"/>
      <point x="272" y="740"/>
      <point x="272" y="708" type="curve" smooth="yes"/>
      <point x="272" y="675"/>
      <point x="245" y="648"/>
      <point x="212" y="648" type="curve" smooth="yes"/>
      <point x="179" y="648"/>
      <point x="152" y="675"/>
      <point x="152" y="708" type="curve" smooth="yes"/>
      <point x="152" y="740"/>
      <point x="179" y="767"/>
      <point x="212" y="767" type="curve" smooth="yes"/>
    </contour>
  </outline>
</glyph>
<glyph name="tonos" format="1">
  <advance width="266"/>
  <unicode hex="0384"/>
  <outline>
    <contour>
      <point x="177" y="671" type="curve" smooth="yes"/>
      <point x="119" y="596" type="line"/>
      <point x="75" y="596" type="line"/>
      <point x="105" y="712" type="line" smooth="yes"/>
      <point x="111.667" y="738.667"/>
      <point x="144.667" y="757"/>
      <point x="170" y="741" type="curve"/>
      <point x="195.333" y="727.667"/>
      <point x="195.667" y="693.667"/>
    </contour>
  </outline>
</glyph>
<glyph name="dieresistonos" format="1">
  <advance width="266"/>
  <unicode hex="0385"/>
  <outline>
    <contour>
      <point x="113" y="693" type="curve" smooth="yes"/>
      <point x="113" y="659.667"/>
      <point x="87.3333" y="634"/>
      <point x="54" y="634" type="curve" smooth="yes"/>
      <point x="20.6667" y="634"/>
      <point x="-6" y="659.667"/>
      <point x="-6" y="693" type="curve" smooth="yes"/>
      <point x="-6" y="726.333"/>
      <point x="20.6667" y="752"/>
      <point x="54" y="752" type="curve" smooth="yes"/>
      <point x="87.3333" y="752"/>
      <point x="113" y="726.333"/>
    </contour>
    <contour>
      <point x="272" y="693" type="curve" smooth="yes"/>
      <point x="272" y="659.667"/>
      <point x="245.333" y="634"/>
      <point x="212" y="634" type="curve" smooth="yes"/>
      <point x="178.667" y="634"/>
      <point x="152" y="659.667"/>
      <point x="152" y="693" type="curve" smooth="yes"/>
      <point x="152" y="726.333"/>
      <point x="178.667" y="752"/>
      <point x="212" y="752" type="curve" smooth="yes"/>
      <point x="245.333" y="752"/>
      <point x="272" y="726.333"/>
    </contour>
    <contour>
      <point x="211" y="807" type="curve" smooth="yes"/>
      <point x="152" y="733" type="line"/>
      <point x="108" y="733" type="line"/>
      <point x="139" y="849" type="line"/>
      <point x="148.333" y="877"/>
      <point x="176" y="892"/>
      <point x="204" y="880" type="curve"/>
      <point x="230.667" y="865.333"/>
      <point x="229.667" y="829.667"/>
    </contour>
  </outline>
</glyph>
<glyph name="Eta" format="1">
  <advance width="514"/>
  <unicode hex="0397"/>
  <outline>
    <contour>
      <point x="362" y="413" type="line"/>
      <point x="362" y="698" type="line"/>
      <point x="471" y="698" type="line"/>
      <point x="471" y="0" type="line"/>
      <point x="362" y="0" type="line"/>
      <point x="362" y="308" type="line"/>
      <point x="151" y="308" type="line"/>
      <point x="151" y="0" type="line"/>
      <point x="41" y="0" type="line"/>
      <point x="41" y="698" type="line"/>
      <point x="151" y="698" type="line"/>
      <point x="151" y="413" type="line"/>
    </contour>
  </outline>
</glyph>
<glyph name="Xi" format="1">
  <advance width="565"/>
  <unicode hex="039E"/>
  <outline>
    <contour>
      <point x="24" y="594" type="line"/>
      <point x="45.3333" y="668.667"/>
      <point x="90" y="698"/>
      <point x="170" y="698" type="curve" smooth="yes"/>
      <point x="494" y="698" type="line"/>
      <point x="473" y="588" type="line"/>
      <point x="191" y="588" type="line" smooth="yes"/>
      <point x="141.667" y="588"/>
      <point x="113" y="573.667"/>
      <point x="101" y="543" type="curve"/>
    </contour>
    <contour>
      <point x="416" y="306" type="line"/>
      <point x="150" y="306" type="line"/>
      <point x="150" y="413" type="line"/>
      <point x="416" y="413" type="line"/>
    </contour>
    <contour>
      <point x="349" y="100" type="line" smooth="yes"/>
      <point x="402.333" y="100"/>
      <point x="426.333" y="112"/>
      <point x="441" y="156" type="curve"/>
      <point x="534" y="106" type="line"/>
      <point x="512.667" y="31.3333"/>
      <point x="467.667" y="0"/>
      <point x="389" y="0" type="curve" smooth="yes"/>
      <point x="64" y="0" type="line"/>
      <point x="95" y="100" type="line"/>
    </contour>
  </outline>
</glyph>
<glyph name="Upsilon" format="1">
  <advance width="518"/>
  <unicode hex="03A5"/>
  <outline>
    <contour>
      <point x="477" y="156" type="line" smooth="yes"/>
      <point x="477" y="50.6667"/>
      <point x="435.333" y="-8.33334"/>
      <point x="326" y="-19" type="curve"/>
      <point x="291" y="65" type="line"/>
      <point x="334.47" y="70.9278"/>
      <point x="367" y="92.8078"/>
      <point x="367" y="164" type="curve" smooth="yes"/>
      <point x="367" y="237" type="line"/>
      <point x="367.167" y="238.25"/>
      <point x="322.333" y="200.5"/>
      <point x="255" y="198" type="curve"/>
      <point x="196.333" y="198"/>
      <point x="141.667" y="210"/>
      <point x="95" y="254" type="curve" smooth="yes"/>
      <point x="53.6667" y="292.667"/>
      <point x="32" y="345"/>
      <point x="32" y="413" type="curve" smooth="yes"/>
      <point x="32" y="698" type="line"/>
      <point x="142" y="698" type="line"/>
      <point x="142" y="422" type="line" smooth="yes"/>
      <point x="142" y="380.667"/>
      <point x="153.333" y="348.333"/>
      <point x="176" y="327" type="curve" smooth="yes"/>
      <point x="194.667" y="309.667"/>
      <point x="226" y="300"/>
      <point x="262" y="300" type="curve" smooth="yes"/>
      <point x="289.333" y="300"/>
      <point x="313.333" y="309.333"/>
      <point x="334" y="328" type="curve" smooth="yes"/>
      <point x="352.667" y="346.667"/>
      <point x="367" y="375.667"/>
      <point x="367" y="405" type="curve" smooth="yes"/>
      <point x="367" y="698" type="line"/>
      <point x="477" y="698" type="line"/>
    </contour>
  </outline>
</glyph>
<glyph name="Phi" format="1">
  <advance width="597"/>
  <unicode hex="03A6"/>
  <outline>
    <contour>
      <point x="209" y="620" type="line"/>
      <point x="182.149" y="609.673"/>
      <point x="146" y="594.045"/>
      <point x="146" y="516" type="curve" smooth="yes"/>
      <point x="146" y="198" type="line" smooth="yes"/>
      <point x="146" y="153.367"/>
      <point x="157.15" y="100"/>
      <point x="224" y="100" type="curve" smooth="yes"/>
      <point x="241" y="100" type="line"/>
      <point x="241" y="569.546" type="line" smooth="yes"/>
      <point x="241" y="620.716"/>
      <point x="259.203" y="710"/>
      <point x="382" y="710" type="curve"/>
      <point x="493.633" y="710"/>
      <point x="561" y="632.083"/>
      <point x="561" y="510" type="curve" smooth="yes"/>
      <point x="561" y="226" type="line" smooth="yes"/>
      <point x="561" y="94.8"/>
      <point x="515.317" y="13"/>
      <point x="374" y="13" type="curve" smooth="yes"/>
      <point x="351" y="13" type="line"/>
      <point x="351" y="-35" type="line"/>
      <point x="241" y="-22" type="line"/>
      <point x="241" y="13" type="line"/>
      <point x="224" y="13" type="line" smooth="yes"/>
      <point x="69.8667" y="13"/>
      <point x="36" y="107.85"/>
      <point x="36" y="226" type="curve" smooth="yes"/>
      <point x="36" y="516" type="line" smooth="yes"/>
      <point x="36" y="616.667"/>
      <point x="74.6667" y="679.667"/>
      <point x="152" y="705" type="curve"/>
    </contour>
    <contour>
      <point x="374" y="100" type="line" smooth="yes"/>
      <point x="437.933" y="100"/>
      <point x="451" y="155.617"/>
      <point x="451" y="198" type="curve" smooth="yes"/>
      <point x="451" y="453" type="line" smooth="yes"/>
      <point x="451" y="525.583"/>
      <point x="451.483" y="599"/>
      <point x="389" y="599" type="curve" smooth="yes"/>
      <point x="350.617" y="599"/>
      <point x="351" y="566.833"/>
      <point x="351" y="543" type="curve" smooth="yes"/>
      <point x="351" y="100" type="line"/>
    </contour>
  </outline>
</glyph>
<glyph name="Chi" format="1">
  <advance width="627"/>
  <unicode hex="03A7"/>
  <outline>
    <contour>
      <point x="315" y="466" type="line"/>
      <point x="455" y="698" type="line"/>
      <point x="587" y="698" type="line"/>
      <point x="381" y="359" type="line"/>
      <point x="603" y="0" type="line"/>
      <point x="465" y="0" type="line"/>
      <point x="313" y="248" type="line"/>
      <point x="163" y="0" type="line"/>
      <point x="26" y="0" type="line"/>
      <point x="246" y="358" type="line"/>
      <point x="38" y="698" type="line"/>
      <point x="174" y="698" type="line"/>
    </contour>
  </outline>
</glyph>
<glyph name="delta" format="1">
  <advance width="436"/>
  <unicode hex="03B4"/>
  <outline>
    <contour>
      <point x="211" y="588" type="line" smooth="yes"/>
      <point x="202.85" y="588"/>
      <point x="190" y="581.667"/>
      <point x="190" y="569" type="curve" smooth="yes"/>
      <point x="190" y="562.966"/>
      <point x="191.899" y="558.88"/>
      <point x="199" y="553" type="curve" smooth="yes"/>
      <point x="229" y="528"/>
      <point x="261" y="505"/>
      <point x="291" y="482" type="curve" smooth="yes"/>
      <point x="324" y="456"/>
      <point x="354" y="429"/>
      <point x="376" y="397" type="curve" smooth="yes"/>
      <point x="395.34" y="368.226"/>
      <point x="403" y="326.667"/>
      <point x="403" y="280" type="curve" smooth="yes"/>
      <point x="403" y="183" type="line" smooth="yes"/>
      <point x="403" y="57.6667"/>
      <point x="328.515" y="-11"/>
      <point x="217" y="-11" type="curve" smooth="yes"/>
      <point x="93" y="-11"/>
      <point x="30" y="59"/>
      <point x="30" y="183" type="curve" smooth="yes"/>
      <point x="30" y="280" type="line" smooth="yes"/>
      <point x="30" y="326.667"/>
      <point x="40" y="366.333"/>
      <point x="60" y="397" type="curve" smooth="yes"/>
      <point x="77.7231" y="424.569"/>
      <point x="110.011" y="449.159"/>
      <point x="154.217" y="458" type="curve"/>
      <point x="131" y="479" type="line" smooth="yes"/>
      <point x="98.3346" y="508.546"/>
      <point x="84" y="539.667"/>
      <point x="84" y="573" type="curve" smooth="yes"/>
      <point x="84" y="663.067"/>
      <point x="168.017" y="700"/>
      <point x="251" y="700" type="curve" smooth="yes"/>
      <point x="368" y="700" type="line"/>
      <point x="347" y="588" type="line"/>
    </contour>
    <contour>
      <point x="290" y="289" type="line" smooth="yes"/>
      <point x="290" y="304.541"/>
      <point x="295.808" y="340.148"/>
      <point x="250" y="381" type="curve" smooth="yes"/>
      <point x="234" y="395" type="line"/>
      <point x="213.926" y="390.985"/>
      <point x="184.238" y="382.31"/>
      <point x="164" y="356" type="curve" smooth="yes"/>
      <point x="152" y="340"/>
      <point x="144" y="317.667"/>
      <point x="144" y="287" type="curve" smooth="yes"/>
      <point x="144" y="175" type="line" smooth="yes"/>
      <point x="144" y="134.7"/>
      <point x="163.5" y="97"/>
      <point x="216" y="97" type="curve" smooth="yes"/>
      <point x="269.383" y="97"/>
      <point x="290" y="134.7"/>
      <point x="290" y="175" type="curve" smooth="yes"/>
    </contour>
  </outline>
</glyph>
<glyph name="epsilon" format="1">
  <advance width="399"/>
  <unicode hex="03B5"/>
  <outline>
    <contour>
      <point x="307" y="401" type="line"/>
      <point x="278" y="408"/>
      <point x="249" y="417"/>
      <point x="210" y="414" type="curve" smooth="yes"/>
      <point x="181" y="412"/>
      <point x="157" y="394.333"/>
      <point x="157" y="361" type="curve" smooth="yes"/>
      <point x="157" y="331.667"/>
      <point x="179.333" y="301"/>
      <point x="250" y="301" type="curve" smooth="yes"/>
      <point x="303" y="301" type="line"/>
      <point x="272" y="205" type="line"/>
      <point x="211" y="205" type="line" smooth="yes"/>
      <point x="170" y="205"/>
      <point x="139" y="186.538"/>
      <point x="139" y="153" type="curve" smooth="yes"/>
      <point x="139" y="115.667"/>
      <point x="178" y="101"/>
      <point x="223" y="101" type="curve" smooth="yes"/>
      <point x="266" y="101"/>
      <point x="313.435" y="112.677"/>
      <point x="342" y="129" type="curve"/>
      <point x="375" y="23" type="line"/>
      <point x="321.667" y="0.333334"/>
      <point x="266.667" y="-11"/>
      <point x="204" y="-11" type="curve" smooth="yes"/>
      <point x="85.5333" y="-11"/>
      <point x="29" y="70.35"/>
      <point x="29" y="148" type="curve" smooth="yes"/>
      <point x="29" y="201.333"/>
      <point x="51.6667" y="249.333"/>
      <point x="93" y="276" type="curve"/>
      <point x="60.8787" y="302.099"/>
      <point x="43" y="351"/>
      <point x="49" y="392" type="curve" smooth="yes"/>
      <point x="57" y="451"/>
      <point x="96" y="507"/>
      <point x="195" y="510" type="curve" smooth="yes"/>
      <point x="231" y="511"/>
      <point x="265.333" y="505.667"/>
      <point x="304" y="495" type="curve"/>
    </contour>
  </outline>
</glyph>
<glyph name="theta" format="1">
  <advance width="444"/>
  <unicode hex="03B8"/>
  <outline>
    <contour>
      <point x="215" y="708" type="curve"/>
      <point x="341.667" y="706.667"/>
      <point x="407" y="630.667"/>
      <point x="407" y="504" type="curve" smooth="yes"/>
      <point x="407" y="189" type="line" smooth="yes"/>
      <point x="407" y="62.3333"/>
      <point x="346.333" y="-12"/>
      <point x="221" y="-12" type="curve" smooth="yes"/>
      <point x="97" y="-12"/>
      <point x="34" y="65"/>
      <point x="34" y="189" type="curve" smooth="yes"/>
      <point x="34" y="287" type="line" smooth="yes"/>
      <point x="34" y="364.333"/>
      <point x="55.9797" y="401.701"/>
      <point x="78.6464" y="423.035" type="curve"/>
      <point x="50.7488" y="466.874"/>
      <point x="45" y="501.908"/>
      <point x="45" y="548" type="curve" smooth="yes"/>
      <point x="45" y="636"/>
      <point x="114.717" y="708"/>
    </contour>
    <contour>
      <point x="294" y="505" type="line" smooth="yes"/>
      <point x="294" y="567.667"/>
      <point x="269.333" y="601"/>
      <point x="220" y="601" type="curve" smooth="yes"/>
      <point x="174.2" y="601"/>
      <point x="154" y="573.017"/>
      <point x="154" y="540" type="curve" smooth="yes"/>
      <point x="154" y="520"/>
      <point x="161" y="478"/>
      <point x="201" y="444" type="curve" smooth="yes"/>
      <point x="222" y="426"/>
      <point x="252" y="411"/>
      <point x="294" y="402" type="curve"/>
    </contour>
    <contour>
      <point x="220" y="97" type="curve" smooth="yes"/>
      <point x="273.383" y="97"/>
      <point x="294" y="140.133"/>
      <point x="294" y="182" type="curve" smooth="yes"/>
      <point x="294" y="313.151" type="line"/>
      <point x="257" y="316"/>
      <point x="196" y="326"/>
      <point x="157" y="350" type="curve"/>
      <point x="147.667" y="336.667"/>
      <point x="148" y="327.667"/>
      <point x="148" y="293" type="curve" smooth="yes"/>
      <point x="148" y="182" type="line" smooth="yes"/>
      <point x="148" y="140.133"/>
      <point x="169.75" y="97"/>
    </contour>
  </outline>
</glyph>
<glyph name="kappa" format="1">
  <advance width="476"/>
  <unicode hex="03BA"/>
  <outline>
    <contour>
      <point x="358" y="160" type="line" smooth="yes"/>
      <point x="394" y="109"/>
      <point x="418" y="98"/>
      <point x="443" y="97" type="curve"/>
      <point x="410" y="-1" type="line"/>
      <point x="334" y="-1"/>
      <point x="295" y="55"/>
      <point x="256" y="111" type="curve" smooth="yes"/>
      <point x="178" y="220" type="line"/>
      <point x="151" y="196" type="line"/>
      <point x="151" y="0" type="line"/>
      <point x="40" y="0" type="line"/>
      <point x="40" y="512" type="line"/>
      <point x="151" y="500" type="line"/>
      <point x="151" y="334" type="line"/>
      <point x="305" y="501" type="line"/>
      <point x="441" y="501" type="line"/>
      <point x="259" y="301" type="line"/>
    </contour>
  </outline>
</glyph>
<glyph name="nu" format="1">
  <advance width="468"/>
  <unicode hex="03BD"/>
  <outline>
    <contour>
      <point x="21" y="499" type="line"/>
      <point x="140" y="499" type="line"/>
      <point x="234" y="170.114" type="line"/>
      <point x="324" y="499" type="line"/>
      <point x="443" y="499" type="line"/>
      <point x="286" y="0" type="line"/>
      <point x="180" y="0" type="line"/>
    </contour>
  </outline>
</glyph>
<glyph name="pi" format="1">
  <advance width="475"/>
  <unicode hex="03C0"/>
  <outline>
    <contour>
      <point x="415" y="105" type="line"/>
      <point x="417.667" y="85"/>
      <point x="429" y="71.3333"/>
      <point x="445" y="62" type="curve"/>
      <point x="380" y="-17" type="line"/>
      <point x="382" y="-15.6732"/>
      <point x="304" y="3.77124"/>
      <point x="306" y="84" type="curve"/>
      <point x="307" y="396" type="line"/>
      <point x="149" y="396" type="line"/>
      <point x="149" y="0" type="line"/>
      <point x="39" y="0" type="line"/>
      <point x="39" y="499" type="line"/>
      <point x="415" y="499" type="line"/>
    </contour>
  </outline>
</glyph>
<glyph name="sigma1" format="1">
  <advance width="351"/>
  <unicode hex="03C2"/>
  <outline>
    <contour>
      <point x="138" y="218" type="line" smooth="yes"/>
      <point x="138" y="187"/>
      <point x="162" y="166"/>
      <point x="185" y="145" type="curve" smooth="yes"/>
      <point x="206" y="125" type="line"/>
      <point x="226" y="106" type="line" smooth="yes"/>
      <point x="257" y="77"/>
      <point x="289" y="38"/>
      <point x="289" y="-21" type="curve" smooth="yes"/>
      <point x="289" y="-72"/>
      <point x="257" y="-114"/>
      <point x="222" y="-147" type="curve"/>
      <point x="154" y="-83" type="line"/>
      <point x="169" y="-70"/>
      <point x="186" y="-50"/>
      <point x="186" y="-26" type="curve" smooth="yes"/>
      <point x="186" y="1"/>
      <point x="168" y="23"/>
      <point x="145" y="43" type="curve" smooth="yes"/>
      <point x="99" y="84" type="line"/>
      <point x="83" y="100"/>
      <point x="64" y="118"/>
      <point x="51" y="141" type="curve" smooth="yes"/>
      <point x="38" y="164"/>
      <point x="28" y="190"/>
      <point x="28" y="222" type="curve" smooth="yes"/>
      <point x="28" y="378" type="line" smooth="yes"/>
      <point x="29" y="409"/>
      <point x="43" y="440"/>
      <point x="71" y="464" type="curve" smooth="yes"/>
      <point x="99" y="488"/>
      <point x="143" y="505"/>
      <point x="204" y="505" type="curve" smooth="yes"/>
      <point x="245" y="505"/>
      <point x="288" y="493"/>
      <point x="323" y="469" type="curve"/>
      <point x="286" y="378" type="line"/>
      <point x="263" y="390"/>
      <point x="237" y="398"/>
      <point x="202" y="398" type="curve" smooth="yes"/>
      <point x="174" y="398"/>
      <point x="158" y="393"/>
      <point x="149" y="386" type="curve"/>
      <point x="140" y="378"/>
      <point x="138" y="370"/>
      <point x="138" y="363" type="curve" smooth="yes"/>
    </contour>
  </outline>
</glyph>
<glyph name="sigma" format="1">
  <advance width="494"/>
  <unicode hex="03C3"/>
  <outline>
    <contour>
      <point x="469" y="466" type="line"/>
      <point x="441.367" y="426.525"/>
      <point x="405.83" y="410.854"/>
      <point x="375" y="407" type="curve"/>
      <point x="391" y="384.333"/>
      <point x="400" y="354.667"/>
      <point x="400" y="316" type="curve" smooth="yes"/>
      <point x="400" y="184" type="line" smooth="yes"/>
      <point x="400" y="66.3407"/>
      <point x="340.059" y="-10"/>
      <point x="218" y="-10" type="curve" smooth="yes"/>
      <point x="85.9167" y="-10"/>
      <point x="30" y="83.0167"/>
      <point x="30" y="184" type="curve" smooth="yes"/>
      <point x="30" y="320" type="line"/>
      <point x="27.5" y="469.583"/>
      <point x="130" y="510"/>
      <point x="216" y="510" type="curve" smooth="yes"/>
      <point x="257" y="510"/>
      <point x="297" y="500"/>
      <point x="338" y="502" type="curve" smooth="yes"/>
      <point x="358" y="503"/>
      <point x="391.667" y="520.667"/>
      <point x="413" y="542" type="curve"/>
    </contour>
    <contour>
      <point x="286" y="322" type="line" smooth="yes"/>
      <point x="286" y="359.132"/>
      <point x="277.893" y="389.161"/>
      <point x="262" y="413" type="curve"/>
      <point x="248.667" y="415.667"/>
      <point x="239.333" y="417"/>
      <point x="226" y="417" type="curve" smooth="yes"/>
      <point x="188.017" y="417"/>
      <point x="140" y="396.1"/>
      <point x="140" y="330" type="curve" smooth="yes"/>
      <point x="140" y="176" type="line" smooth="yes"/>
      <point x="140" y="135.7"/>
      <point x="161.85" y="98"/>
      <point x="215" y="98" type="curve" smooth="yes"/>
      <point x="266.833" y="98"/>
      <point x="286" y="131.2"/>
      <point x="286" y="176" type="curve" smooth="yes"/>
    </contour>
  </outline>
</glyph>
<glyph name="phi" format="1">
  <advance width="589"/>
  <unicode hex="03C6"/>
  <outline>
    <contour>
      <point x="31" y="313" type="line" smooth="yes"/>
      <point x="31" y="415.667"/>
      <point x="72" y="476.667"/>
      <point x="148" y="502" type="curve"/>
      <point x="207" y="420" type="line"/>
      <point x="146.652" y="407.576"/>
      <point x="141" y="368.445"/>
      <point x="141" y="313" type="curve" smooth="yes"/>
      <point x="141" y="172" type="line" smooth="yes"/>
      <point x="141" y="119.5"/>
      <point x="185.783" y="100"/>
      <point x="220" y="100" type="curve" smooth="yes"/>
      <point x="237" y="100" type="line"/>
      <point x="237" y="388" type="line" smooth="yes"/>
      <point x="237" y="457.333"/>
      <point x="289.667" y="506"/>
      <point x="371" y="506" type="curve" smooth="yes"/>
      <point x="484.2" y="506"/>
      <point x="557" y="421.667"/>
      <point x="557" y="307" type="curve" smooth="yes"/>
      <point x="557" y="189" type="line" smooth="yes"/>
      <point x="557" y="67.6667"/>
      <point x="499" y="-7"/>
      <point x="371" y="-7" type="curve" smooth="yes"/>
      <point x="347" y="-7" type="line"/>
      <point x="347" y="-216" type="line"/>
      <point x="237" y="-191" type="line"/>
      <point x="237" y="-7" type="line"/>
      <point x="220" y="-7" type="line" smooth="yes"/>
      <point x="94.6667" y="-7"/>
      <point x="31" y="67.6667"/>
      <point x="31" y="189" type="curve" smooth="yes"/>
    </contour>
    <contour>
      <point x="371" y="100" type="line" smooth="yes"/>
      <point x="414.756" y="100"/>
      <point x="447" y="126.99"/>
      <point x="447" y="172" type="curve" smooth="yes"/>
      <point x="447" y="331" type="line" smooth="yes"/>
      <point x="447" y="368.203"/>
      <point x="433.723" y="420"/>
      <point x="384" y="420" type="curve" smooth="yes"/>
      <point x="360" y="420"/>
      <point x="347" y="404"/>
      <point x="347" y="380" type="curve" smooth="yes"/>
      <point x="347" y="100" type="line"/>
    </contour>
  </outline>
</glyph>
<glyph name="quoteleft" format="1">
  <advance width="176"/>
  <unicode hex="2018"/>
  <outline>
    <contour>
      <point x="121" y="708" type="line"/>
      <point x="111.667" y="690.667"/>
      <point x="106" y="669.667"/>
      <point x="102" y="651" type="curve"/>
      <point x="128.667" y="643"/>
      <point x="147" y="619.667"/>
      <point x="147" y="593" type="curve" smooth="yes"/>
      <point x="147" y="559.667"/>
      <point x="121.333" y="532"/>
      <point x="88" y="532" type="curve" smooth="yes"/>
      <point x="54.6667" y="532"/>
      <point x="28" y="559.667"/>
      <point x="28" y="593" type="curve"/>
      <point x="27.5556" y="684.111"/>
      <point x="96.4445" y="724.556"/>
      <point x="96" y="725" type="curve"/>
    </contour>
  </outline>
</glyph>
<glyph name="quoteright" format="1">
  <advance width="173"/>
  <unicode hex="2019"/>
  <outline>
    <contour>
      <point x="53" y="550" type="line"/>
      <point x="63.6667" y="568.667"/>
      <point x="68" y="588"/>
      <point x="72" y="608" type="curve"/>
      <point x="45.3333" y="614.667"/>
      <point x="26" y="638.333"/>
      <point x="26" y="665" type="curve" smooth="yes"/>
      <point x="26" y="697"/>
      <point x="52.6667" y="725"/>
      <point x="86" y="725" type="curve" smooth="yes"/>
      <point x="119.333" y="725"/>
      <point x="145" y="697"/>
      <point x="145" y="665" type="curve"/>
      <point x="146.667" y="574.444"/>
      <point x="76.3334" y="531.889"/>
      <point x="78" y="532" type="curve"/>
    </contour>
  </outline>
</glyph>
<glyph name="quotesinglbase" format="1">
  <advance width="188"/>
  <unicode hex="201A"/>
  <outline>
    <contour>
      <point x="62" y="-73" type="line"/>
      <point x="72.6667" y="-54.3333"/>
      <point x="77.6667" y="-33.6667"/>
      <point x="79" y="-15" type="curve"/>
      <point x="53.6667" y="-8.33333"/>
      <point x="35" y="15"/>
      <point x="35" y="43" type="curve" smooth="yes"/>
      <point x="35" y="76.3333"/>
      <point x="60.6667" y="102"/>
      <point x="94" y="102" type="curve" smooth="yes"/>
      <point x="127.333" y="102"/>
      <point x="153" y="76.3333"/>
      <point x="153" y="43" type="curve"/>
      <point x="154.667" y="-48.1111"/>
      <point x="84.3334" y="-88.5556"/>
      <point x="86" y="-89" type="curve"/>
    </contour>
  </outline>
</glyph>
<glyph name="quotedblright" format="1">
  <advance width="354"/>
  <unicode hex="201D"/>
  <outline>
    <contour>
      <point x="54" y="550" type="line"/>
      <point x="64.6667" y="568.667"/>
      <point x="68.3333" y="588"/>
      <point x="71" y="608" type="curve"/>
      <point x="45.6667" y="614.667"/>
      <point x="26" y="638.333"/>
      <point x="26" y="665" type="curve" smooth="yes"/>
      <point x="26" y="697"/>
      <point x="52.6667" y="725"/>
      <point x="86" y="725" type="curve" smooth="yes"/>
      <point x="119.333" y="725"/>
      <point x="145" y="697"/>
      <point x="145" y="665" type="curve"/>
      <point x="145.444" y="574.444"/>
      <point x="76.5555" y="531.889"/>
      <point x="77" y="532" type="curve"/>
    </contour>
    <contour>
      <point x="233" y="550" type="line"/>
      <point x="243.667" y="568.667"/>
      <point x="249.667" y="588"/>
      <point x="251" y="608" type="curve"/>
      <point x="225.667" y="614.667"/>
      <point x="206" y="638.333"/>
      <point x="206" y="665" type="curve" smooth="yes"/>
      <point x="206" y="697"/>
      <point x="231.667" y="725"/>
      <point x="265" y="725" type="curve" smooth="yes"/>
      <point x="298.333" y="725"/>
      <point x="326" y="697"/>
      <point x="326" y="665" type="curve"/>
      <point x="326.444" y="574.444"/>
      <point x="257.556" y="531.889"/>
      <point x="258" y="532" type="curve"/>
    </contour>
  </outline>
</glyph>
<glyph name="ellipsis" format="1">
  <advance width="542"/>
  <unicode hex="2026"/>
  <outline>
    <contour>
      <point x="94" y="100" type="curve" smooth="yes"/>
      <point x="127.333" y="100"/>
      <point x="153" y="73.3333"/>
      <point x="153" y="40" type="curve" smooth="yes"/>
      <point x="153" y="6.66667"/>
      <point x="127.333" y="-19"/>
      <point x="94" y="-19" type="curve" smooth="yes"/>
      <point x="60.6667" y="-19"/>
      <point x="35" y="6.66667"/>
      <point x="35" y="40" type="curve" smooth="yes"/>
      <point x="35" y="73.3333"/>
      <point x="60.6667" y="100"/>
    </contour>
    <contour>
      <point x="268" y="100" type="curve" smooth="yes"/>
      <point x="301.333" y="100"/>
      <point x="328" y="73.3333"/>
      <point x="328" y="40" type="curve" smooth="yes"/>
      <point x="328" y="6.66667"/>
      <point x="301.333" y="-19"/>
      <point x="268" y="-19" type="curve" smooth="yes"/>
      <point x="236" y="-19"/>
      <point x="210" y="6.66667"/>
      <point x="210" y="40" type="curve" smooth="yes"/>
      <point x="210" y="73.3333"/>
      <point x="236" y="100"/>
    </contour>
    <contour>
      <point x="447" y="100" type="curve" smooth="yes"/>
      <point x="480.333" y="100"/>
      <point x="508" y="73.3333"/>
      <point x="508" y="40" type="curve" smooth="yes"/>
      <point x="508" y="6.66667"/>
      <point x="480.333" y="-19"/>
      <point x="447" y="-19" type="curve" smooth="yes"/>
      <point x="413.667" y="-19"/>
      <point x="389" y="6.66667"/>
      <point x="389" y="40" type="curve" smooth="yes"/>
      <point x="389" y="73.3333"/>
      <point x="413.667" y="100"/>
    </contour>
  </outline>
</glyph>
<glyph name="perthousand" format="1">
  <advance width="1070"/>
  <unicode hex="2030"/>
  <outline>
    <contour>
      <point x="35" y="0" type="line"/>
      <point x="572" y="698" type="line"/>
      <point x="689" y="698" type="line"/>
      <point x="149" y="0" type="line"/>
    </contour>
    <contour>
      <point x="187" y="713" type="curve" smooth="yes"/>
      <point x="267.017" y="713"/>
      <point x="332" y="648.017"/>
      <point x="332" y="568" type="curve" smooth="yes"/>
      <point x="332" y="487.317"/>
      <point x="267.017" y="422"/>
      <point x="187" y="422" type="curve" smooth="yes"/>
      <point x="106.983" y="422"/>
      <point x="42" y="487.317"/>
      <point x="42" y="568" type="curve" smooth="yes"/>
      <point x="42" y="648.017"/>
      <point x="106.983" y="713"/>
    </contour>
    <contour>
      <point x="187" y="620" type="curve" smooth="yes"/>
      <point x="158.633" y="620"/>
      <point x="135" y="596.367"/>
      <point x="135" y="568" type="curve" smooth="yes"/>
      <point x="135" y="538.967"/>
      <point x="158.633" y="515"/>
      <point x="187" y="515" type="curve" smooth="yes"/>
      <point x="216.267" y="515"/>
      <point x="239" y="538.967"/>
      <point x="239" y="568" type="curve" smooth="yes"/>
      <point x="239" y="596.367"/>
      <point x="216.267" y="620"/>
    </contour>
    <contour>
      <point x="547" y="277" type="curve" smooth="yes"/>
      <point x="628.583" y="277"/>
      <point x="693" y="212.583"/>
      <point x="693" y="131" type="curve" smooth="yes"/>
      <point x="693" y="50.9833"/>
      <point x="628.583" y="-14"/>
      <point x="547" y="-14" type="curve" smooth="yes"/>
      <point x="467.65" y="-14"/>
      <point x="403" y="50.9833"/>
      <point x="403" y="131" type="curve" smooth="yes"/>
      <point x="403" y="212.583"/>
      <point x="467.65" y="277"/>
    </contour>
    <contour>
      <point x="547" y="184" type="curve" smooth="yes"/>
      <point x="518.633" y="184"/>
      <point x="495" y="158.683"/>
      <point x="495" y="131" type="curve" smooth="yes"/>
      <point x="495" y="102.633"/>
      <point x="518.633" y="79"/>
      <point x="547" y="79" type="curve" smooth="yes"/>
      <point x="576.933" y="79"/>
      <point x="600" y="102.633"/>
      <point x="600" y="131" type="curve" smooth="yes"/>
      <point x="600" y="158.683"/>
      <point x="576.933" y="184"/>
    </contour>
    <contour>
      <point x="893" y="277" type="curve" smooth="yes"/>
      <point x="972.333" y="277"/>
      <point x="1039" y="212.583"/>
      <point x="1039" y="131" type="curve" smooth="yes"/>
      <point x="1039" y="50.9833"/>
      <point x="972.333" y="-14"/>
      <point x="893" y="-14" type="curve" smooth="yes"/>
      <point x="812.983" y="-14"/>
      <point x="748" y="50.9833"/>
      <point x="748" y="131" type="curve" smooth="yes"/>
      <point x="748" y="212.583"/>
      <point x="812.983" y="277"/>
    </contour>
    <contour>
      <point x="893" y="184" type="curve" smooth="yes"/>
      <point x="862.383" y="184"/>
      <point x="841" y="158.683"/>
      <point x="841" y="131" type="curve" smooth="yes"/>
      <point x="841" y="102.633"/>
      <point x="862.383" y="79"/>
      <point x="893" y="79" type="curve" smooth="yes"/>
      <point x="922.933" y="79"/>
      <point x="946" y="102.633"/>
      <point x="946" y="131" type="curve" smooth="yes"/>
      <point x="946" y="158.683"/>
      <point x="922.933" y="184"/>
    </contour>
  </outline>
</glyph>
<glyph name="Euro" format="1">
  <advance width="426"/>
  <unicode hex="20AC"/>
  <outline>
    <component base="C"/>
    <contour>
      <point x="-1" y="376" type="line"/>
      <point x="-1" y="481" type="line"/>
      <point x="356" y="481" type="line"/>
      <point x="356" y="376" type="line"/>
    </contour>
    <contour>
      <point x="-1" y="224" type="line"/>
      <point x="-1" y="329" type="line"/>
      <point x="356" y="329" type="line"/>
      <point x="356" y="224" type="line"/>
    </contour>
  </outline>
</glyph>
<glyph name="commaaccent" format="1">
  <advance width="266"/>
  <unicode hex="F6C3"/>
  <outline>
    <contour>
      <point x="101" y="-236" type="line"/>
      <point x="111.667" y="-217.333"/>
      <point x="115" y="-198"/>
      <point x="119" y="-178" type="curve"/>
      <point x="92.3333" y="-171.333"/>
      <point x="74" y="-148"/>
      <point x="74" y="-120" type="curve" smooth="yes"/>
      <point x="74" y="-88"/>
      <point x="100.667" y="-61"/>
      <point x="134" y="-61" type="curve" smooth="yes"/>
      <point x="166" y="-61"/>
      <point x="192" y="-88"/>
      <point x="192" y="-120" type="curve"/>
      <point x="193.667" y="-210.556"/>
      <point x="123.333" y="-253.111"/>
      <point x="125" y="-253" type="curve"/>
    </contour>
  </outline>
</glyph>
<glyph name="uni0326" format="1">
  <advance width="266"/>
  <unicode hex="F6C3"/>
  <outline>
    <contour>
      <point x="101" y="-236" type="line"/>
      <point x="112" y="-217"/>
      <point x="115" y="-198"/>
      <point x="119" y="-178" type="curve"/>
      <point x="92" y="-171"/>
      <point x="74" y="-148"/>
      <point x="74" y="-120" type="curve" smooth="yes"/>
      <point x="74" y="-88"/>
      <point x="101" y="-61"/>
      <point x="134" y="-61" type="curve" smooth="yes"/>
      <point x="166" y="-61"/>
      <point x="192" y="-88"/>
      <point x="192" y="-120" type="curve" smooth="yes"/>
      <point x="193" y="-165"/>
      <point x="175" y="-198"/>
      <point x="159" y="-220" type="curve"/>
      <point x="150" y="-231"/>
      <point x="142" y="-240"/>
      <point x="135" y="-245" type="curve" smooth="yes"/>
      <point x="128" y="-250"/>
      <point x="124" y="-253"/>
      <point x="125" y="-253" type="curve"/>
    </contour>
  </outline>
</glyph>
<glyph name="fi" format="1">
  <advance width="417"/>
  <unicode hex="FB01"/>
  <outline>
    <contour>
      <point x="40" y="538" type="line" smooth="yes"/>
      <point x="40" y="647.177"/>
      <point x="115.887" y="708"/>
      <point x="202" y="708" type="curve" smooth="yes"/>
      <point x="258" y="708"/>
      <point x="324.667" y="684.667"/>
      <point x="362" y="630" type="curve"/>
      <point x="269" y="573" type="line"/>
      <point x="251.667" y="594.333"/>
      <point x="230.667" y="602"/>
      <point x="212" y="602" type="curve" smooth="yes"/>
      <point x="169.967" y="602"/>
      <point x="153" y="569.6"/>
      <point x="153" y="521" type="curve" smooth="yes"/>
      <point x="153" y="499" type="line"/>
      <point x="240" y="499" type="line"/>
      <point x="216" y="396" type="line"/>
      <point x="153" y="396" type="line"/>
      <point x="153" y="0" type="line"/>
      <point x="40" y="0" type="line"/>
    </contour>
    <contour>
      <point x="377" y="0" type="line"/>
      <point x="270" y="0" type="line"/>
      <point x="270" y="499" type="line"/>
      <point x="377" y="499" type="line"/>
    </contour>
  </outline>
</glyph>
<glyph name="fl" format="1">
  <advance width="419"/>
  <unicode hex="FB02"/>
  <outline>
    <contour>
      <point x="266" y="592" type="line"/>
      <point x="255.333" y="604"/>
      <point x="238.667" y="609"/>
      <point x="220" y="609" type="curve" smooth="yes"/>
      <point x="188.617" y="609"/>
      <point x="152" y="592.267"/>
      <point x="152" y="548" type="curve" smooth="yes"/>
      <point x="152" y="499" type="line"/>
      <point x="239" y="499" type="line"/>
      <point x="215" y="396" type="line"/>
      <point x="152" y="396" type="line"/>
      <point x="152" y="0" type="line"/>
      <point x="39" y="0" type="line"/>
      <point x="39" y="516" type="line" smooth="yes"/>
      <point x="39" y="625.229"/>
      <point x="94.8961" y="708"/>
      <point x="231" y="708" type="curve" smooth="yes"/>
      <point x="275" y="708"/>
      <point x="317.333" y="701"/>
      <point x="376" y="685" type="curve"/>
      <point x="376" y="0" type="line"/>
      <point x="266" y="0" type="line"/>
    </contour>
  </outline>
</glyph>
<glyph name="ffl" format="1">
  <advance width="649"/>
  <unicode hex="FB04"/>
  <outline>
    <contour>
      <point x="494" y="590" type="line"/>
      <point x="479" y="594"/>
      <point x="466" y="596"/>
      <point x="453" y="596" type="curve" smooth="yes"/>
      <point x="416" y="596"/>
      <point x="384" y="575"/>
      <point x="384" y="532" type="curve" smooth="yes"/>
      <point x="384" y="499" type="line"/>
      <point x="473" y="499" type="line"/>
      <point x="449" y="396" type="line"/>
      <point x="384" y="396" type="line"/>
      <point x="384" y="0" type="line"/>
      <point x="269" y="0" type="line"/>
      <point x="268" y="493" type="line" smooth="yes"/>
      <point x="268" y="556"/>
      <point x="275" y="568"/>
      <point x="280" y="582" type="curve"/>
      <point x="271" y="590"/>
      <point x="254" y="596"/>
      <point x="231" y="596" type="curve" smooth="yes"/>
      <point x="193" y="596"/>
      <point x="151" y="574"/>
      <point x="151" y="526" type="curve" smooth="yes"/>
      <point x="151" y="499" type="line"/>
      <point x="238" y="499" type="line"/>
      <point x="214" y="396" type="line"/>
      <point x="151" y="396" type="line"/>
      <point x="151" y="0" type="line"/>
      <point x="39" y="0" type="line"/>
      <point x="39" y="536" type="line" smooth="yes"/>
      <point x="39" y="586"/>
      <point x="72" y="703"/>
      <point x="228" y="703" type="curve" smooth="yes"/>
      <point x="263" y="703"/>
      <point x="301" y="696"/>
      <point x="342" y="679" type="curve"/>
      <point x="374" y="699"/>
      <point x="416" y="707"/>
      <point x="461" y="707" type="curve" smooth="yes"/>
      <point x="502" y="707"/>
      <point x="551" y="698"/>
      <point x="606" y="685" type="curve"/>
      <point x="606" y="0" type="line"/>
      <point x="494" y="0" type="line"/>
    </contour>
  </outline>
</glyph>
<glyph name="commaturnedabovecomb" format="1">
  <advance width="266"/>
  <outline>
    <contour>
      <point x="165" y="726" type="line"/>
      <point x="155.667" y="708.667"/>
      <point x="150.333" y="685.667"/>
      <point x="149" y="667" type="curve"/>
      <point x="173" y="661.667"/>
      <point x="193" y="637"/>
      <point x="193" y="609" type="curve" smooth="yes"/>
      <point x="193" y="575.667"/>
      <point x="166.333" y="550"/>
      <point x="133" y="550" type="curve" smooth="yes"/>
      <point x="99.6667" y="550"/>
      <point x="73" y="575.667"/>
      <point x="73" y="609" type="curve"/>
      <point x="71.3333" y="700.111"/>
      <point x="141.667" y="740.556"/>
      <point x="140" y="741" type="curve"/>
    </contour>
  </outline>
</glyph>
<glyph name="tonoscomb" format="1">
  <advance width="266"/>
  <outline>
    <contour>
      <point x="207" y="671" type="curve" smooth="yes"/>
      <point x="149" y="596" type="line"/>
      <point x="105" y="596" type="line"/>
      <point x="135" y="712" type="line" smooth="yes"/>
      <point x="141.667" y="738.667"/>
      <point x="174.667" y="757"/>
      <point x="200" y="741" type="curve"/>
      <point x="225.333" y="727.667"/>
      <point x="225.667" y="693.667"/>
    </contour>
  </outline>
</glyph>
<glyph name="uni030A" format="1">
  <advance width="266"/>
  <outline>
    <contour>
      <point x="165" y="774"/>
      <point x="193" y="762"/>
      <point x="214" y="742" type="curve"/>
      <point x="234" y="721"/>
      <point x="247" y="693"/>
      <point x="247" y="661" type="curve" smooth="yes"/>
      <point x="247" y="630"/>
      <point x="234" y="601"/>
      <point x="214" y="581" type="curve" smooth="yes"/>
      <point x="193" y="560"/>
      <point x="165" y="547"/>
      <point x="133" y="547" type="curve" smooth="yes"/>
      <point x="102" y="547"/>
      <point x="73" y="560"/>
      <point x="53" y="581" type="curve"/>
      <point x="32" y="601"/>
      <point x="19" y="630"/>
      <point x="19" y="661" type="curve" smooth="yes"/>
      <point x="19" y="693"/>
      <point x="32" y="721"/>
      <point x="53" y="742" type="curve" smooth="yes"/>
      <point x="73" y="762"/>
      <point x="102" y="774"/>
      <point x="133" y="774" type="curve" smooth="yes"/>
    </contour>
    <contour>
      <point x="117" y="692"/>
      <point x="102" y="678"/>
      <point x="102" y="661" type="curve" smooth="yes"/>
      <point x="102" y="642"/>
      <point x="117" y="629"/>
      <point x="133" y="629" type="curve" smooth="yes"/>
      <point x="150" y="629"/>
      <point x="164" y="642"/>
      <point x="164" y="661" type="curve" smooth="yes"/>
      <point x="164" y="678"/>
      <point x="150" y="692"/>
      <point x="133" y="692" type="curve" smooth="yes"/>
    </contour>
  </outline>
</glyph>
<glyph name="uni030B" format="1">
  <advance width="266"/>
  <outline>
    <contour>
      <point x="99" y="569" type="line"/>
      <point x="55" y="569" type="line"/>
      <point x="85" y="685" type="line"/>
      <point x="89" y="697"/>
      <point x="99" y="710"/>
      <point x="111" y="716" type="curve" smooth="yes"/>
      <point x="123" y="722"/>
      <point x="138" y="724"/>
      <point x="150" y="716" type="curve"/>
      <point x="163" y="709"/>
      <point x="170" y="697"/>
      <point x="171" y="684" type="curve"/>
      <point x="171" y="671"/>
      <point x="166" y="657"/>
      <point x="157" y="645" type="curve" smooth="yes"/>
    </contour>
    <contour>
      <point x="211" y="569" type="line"/>
      <point x="167" y="569" type="line"/>
      <point x="197" y="685" type="line"/>
      <point x="201" y="698"/>
      <point x="210" y="711"/>
      <point x="222" y="717" type="curve" smooth="yes"/>
      <point x="234" y="723"/>
      <point x="247" y="724"/>
      <point x="262" y="716" type="curve"/>
      <point x="289" y="703"/>
      <point x="289" y="668"/>
      <point x="270" y="645" type="curve" smooth="yes"/>
    </contour>
  </outline>
</glyph>
<glyph name="uni030C" format="1">
  <advance width="266"/>
  <outline>
    <contour>
      <point x="263" y="716" type="line"/>
      <point x="131" y="588" type="line"/>
      <point x="3" y="715" type="line"/>
      <point x="56" y="767" type="line"/>
      <point x="131" y="686" type="line"/>
      <point x="211" y="768" type="line"/>
    </contour>
  </outline>
</glyph>
<glyph name="uni0312" format="1">
  <advance width="266"/>
  <outline>
    <contour>
      <point x="165" y="726" type="line"/>
      <point x="156" y="709"/>
      <point x="150" y="686"/>
      <point x="149" y="667" type="curve"/>
      <point x="173" y="662"/>
      <point x="193" y="637"/>
      <point x="193" y="609" type="curve" smooth="yes"/>
      <point x="193" y="576"/>
      <point x="166" y="550"/>
      <point x="133" y="550" type="curve" smooth="yes"/>
      <point x="100" y="550"/>
      <point x="73" y="576"/>
      <point x="73" y="609" type="curve"/>
      <point x="72" y="654"/>
      <point x="90" y="688"/>
      <point x="107" y="709" type="curve"/>
      <point x="115" y="720"/>
      <point x="123" y="728"/>
      <point x="130" y="733" type="curve" smooth="yes"/>
      <point x="137" y="738"/>
      <point x="141" y="741"/>
      <point x="140" y="741" type="curve"/>
    </contour>
  </outline>
</glyph>
